<svg viewBox="0 0 32 32" fill="none" xmlns="http://www.w3.org/2000/svg">
<path opacity="0.35" d="M28.2411 22.6271C27.8629 23.5007 26.9634 24 26.0115 24H19.7539C19.795 23.886 19.8314 23.7692 19.8629 23.6497C20.2279 22.2632 19.8434 20.852 18.9619 19.8617C19.2873 17.2121 19.4903 14.4977 19.6145 12.3535C19.6759 11.2897 18.3727 10.9344 17.9033 11.887C16.9571 13.8071 15.7991 16.2611 14.779 18.7213C13.529 19.1305 12.5025 20.1569 12.1373 21.5435C11.9153 22.3865 11.9705 23.2388 12.2461 24H5.98863C5.03671 24 4.13725 23.5007 3.75899 22.6271C3.05624 21.0044 2.66675 19.2144 2.66675 17.3333C2.66675 9.96953 8.63628 4 16.0001 4C23.3639 4 29.3334 9.96953 29.3334 17.3333C29.3334 19.2144 28.9439 21.0044 28.2411 22.6271Z" fill="currentColor"/>
<path d="M19.6144 12.3532C19.6759 11.2894 18.3727 10.9341 17.9032 11.8867C16.9571 13.8067 15.7991 16.2607 14.7789 18.721C13.5289 19.1302 12.5024 20.1566 12.1373 21.5431C11.5656 23.7138 12.8317 25.945 14.9651 26.5267C17.0984 27.1083 19.2912 25.8202 19.8628 23.6494C20.2279 22.2629 19.8433 20.8517 18.9619 19.8614C19.2872 17.2118 19.4903 14.4974 19.6144 12.3532Z" fill="currentColor"/>
</svg>

