<svg  viewBox="0 0 32 32" fill="none" xmlns="http://www.w3.org/2000/svg">
<path opacity="0.35" fill-rule="evenodd" clip-rule="evenodd" d="M27.8819 10.9696C25.9623 11.4525 23.6957 11.4845 21.738 10.8865C20.9104 10.6336 20.2651 9.98886 19.9857 9.16979C19.2899 7.12935 19.118 4.63182 19.6293 2.70939C18.5705 2.68281 17.3664 2.66699 16 2.66699C11.3543 2.66699 8.58593 2.84942 7.01713 3.01871C5.85488 3.14413 4.95869 3.93134 4.74107 5.07989C4.40233 6.86773 4 10.21 4 16.0003C4 21.7907 4.40233 25.1329 4.74107 26.9207C4.95869 28.0694 5.85488 28.8566 7.01713 28.9819C8.58593 29.1511 11.3543 29.3337 16 29.3337C20.6457 29.3337 23.4141 29.1511 24.9829 28.9819C26.1452 28.8566 27.0413 28.0694 27.2589 26.9207C27.5976 25.1329 28 21.7907 28 16.0003C28 14.0597 27.9548 12.3939 27.8819 10.9696ZM10.6667 17.3337C9.93027 17.3337 9.33333 16.7367 9.33333 16.0003C9.33333 15.2639 9.93027 14.667 10.6667 14.667H16C16.7364 14.667 17.3333 15.2639 17.3333 16.0003C17.3333 16.7367 16.7364 17.3337 16 17.3337H10.6667ZM10.6667 23.3337C9.93027 23.3337 9.33333 22.7367 9.33333 22.0003C9.33333 21.2639 9.93027 20.667 10.6667 20.667H20C20.7364 20.667 21.3333 21.2639 21.3333 22.0003C21.3333 22.7367 20.7364 23.3337 20 23.3337H10.6667Z" fill="currentColor"/>
<path d="M9.33337 22.0003C9.33337 22.7367 9.93031 23.3337 10.6667 23.3337H20C20.7364 23.3337 21.3334 22.7367 21.3334 22.0003C21.3334 21.2639 20.7364 20.667 20 20.667H10.6667C9.93031 20.667 9.33337 21.2639 9.33337 22.0003Z" fill="currentColor"/>
<path d="M9.33337 16.0003C9.33337 16.7367 9.93031 17.3337 10.6667 17.3337H16C16.7364 17.3337 17.3334 16.7367 17.3334 16.0003C17.3334 15.2639 16.7364 14.667 16 14.667H10.6667C9.93031 14.667 9.33337 15.2639 9.33337 16.0003Z" fill="currentColor"/>
<path d="M27.8818 10.9693C25.9622 11.4521 23.6957 11.4842 21.7381 10.8861C20.9103 10.6333 20.265 9.98853 19.9857 9.16946C19.2898 7.129 19.1178 4.63142 19.6293 2.70898C19.6293 2.70898 21.2614 3.33325 24.2614 6.33325C27.2614 9.33326 27.8818 10.9693 27.8818 10.9693Z" fill="currentColor"/>
</svg>

