<svg  viewBox="0 0 20 21" fill="none" xmlns="http://www.w3.org/2000/svg">
<path opacity="0.35" d="M15.625 8.00033V8.58699C15.625 9.29116 15.825 9.97949 16.2017 10.5653L17.125 12.0012C17.9675 13.3128 17.3242 15.0953 15.8583 15.5095C12.0281 16.5945 7.97186 16.5945 4.14166 15.5095C2.67582 15.0953 2.03249 13.3128 2.87499 12.0012L3.79832 10.5653C4.1763 9.97479 4.37675 9.28813 4.37582 8.58699V8.00033C4.37582 4.77866 6.89416 2.16699 9.99999 2.16699C13.1058 2.16699 15.625 4.77866 15.625 8.00033Z" fill="currentColor"/>
<path d="M10.625 5.5C10.625 5.33424 10.5591 5.17527 10.4419 5.05806C10.3247 4.94085 10.1658 4.875 9.99999 4.875C9.83423 4.875 9.67526 4.94085 9.55805 5.05806C9.44084 5.17527 9.37499 5.33424 9.37499 5.5V8.83333C9.37499 8.99909 9.44084 9.15806 9.55805 9.27527C9.67526 9.39249 9.83423 9.45833 9.99999 9.45833C10.1658 9.45833 10.3247 9.39249 10.4419 9.27527C10.5591 9.15806 10.625 8.99909 10.625 8.83333V5.5ZM6.03583 15.9542C6.30812 16.7909 6.83823 17.5201 7.55024 18.0371C8.26225 18.5542 9.11963 18.8327 9.99958 18.8327C10.8795 18.8327 11.7369 18.5542 12.4489 18.0371C13.1609 17.5201 13.691 16.7909 13.9633 15.9542C11.3425 16.4458 8.65749 16.4458 6.03583 15.9542Z" fill="currentColor"/>
</svg>
