<svg viewBox="0 0 20 20" fill="none" xmlns="http://www.w3.org/2000/svg">
<path opacity="0.35" d="M9.99996 4.41674V17.7751C9.85829 17.7751 9.70829 17.7501 9.59163 17.6834L9.55829 17.6667C7.95829 16.7917 5.16663 15.8751 3.35829 15.6334L3.11663 15.6001C2.31663 15.5001 1.66663 14.7501 1.66663 13.9501V3.88341C1.66663 2.89174 2.47496 2.14174 3.46663 2.22508C5.21663 2.36674 7.86663 3.25008 9.34996 4.17508L9.55829 4.30008C9.68329 4.37508 9.84163 4.41674 9.99996 4.41674Z" fill="currentColor"/>
<path d="M18.3333 3.89128V13.9496C18.3333 14.7496 17.6833 15.4996 16.8833 15.5996L16.6083 15.633C14.7917 15.8746 11.9917 16.7996 10.3917 17.683C10.2833 17.7496 10.15 17.7746 10 17.7746V4.41628C10.1583 4.41628 10.3167 4.37462 10.4417 4.29962L10.5833 4.20795C12.0667 3.27462 14.725 2.38295 16.475 2.23295H16.525C17.5167 2.14962 18.3333 2.89128 18.3333 3.89128Z" fill="currentColor"/>
<path d="M6.45837 7.7002H4.58337C4.24171 7.7002 3.95837 7.41686 3.95837 7.0752C3.95837 6.73353 4.24171 6.4502 4.58337 6.4502H6.45837C6.80004 6.4502 7.08337 6.73353 7.08337 7.0752C7.08337 7.41686 6.80004 7.7002 6.45837 7.7002Z" fill="currentColor"/>
<path d="M7.08337 10.2002H4.58337C4.24171 10.2002 3.95837 9.91686 3.95837 9.5752C3.95837 9.23353 4.24171 8.9502 4.58337 8.9502H7.08337C7.42504 8.9502 7.70837 9.23353 7.70837 9.5752C7.70837 9.91686 7.42504 10.2002 7.08337 10.2002Z" fill="currentColor"/>
</svg>
