<svg  viewBox="0 0 25 24" fill="none" xmlns="http://www.w3.org/2000/svg">
<path opacity="0.35" d="M4.16992 2.5V14.47C4.16992 15.45 4.62992 16.38 5.41992 16.97L10.6299 20.87C11.7399 21.7 13.2699 21.7 14.3799 20.87L19.5899 16.97C20.3799 16.38 20.8399 15.45 20.8399 14.47V2.5H4.16992Z" fill="currentColor"/>
<path d="M22.5 3.25H2.5C2.09 3.25 1.75 2.91 1.75 2.5C1.75 2.09 2.09 1.75 2.5 1.75H22.5C22.91 1.75 23.25 2.09 23.25 2.5C23.25 2.91 22.91 3.25 22.5 3.25Z" fill="currentColor"/>
<path d="M16.5 11.5H8.5C8.09 11.5 7.75 11.16 7.75 10.75C7.75 10.34 8.09 10 8.5 10H16.5C16.91 10 17.25 10.34 17.25 10.75C17.25 11.16 16.91 11.5 16.5 11.5Z" fill="currentColor"/>
</svg>
