<svg  viewBox="0 0 20 20" fill="none" xmlns="http://www.w3.org/2000/svg">
<path d="M5.80008 1.66699C6.14841 1.66699 6.43008 1.92533 6.43008 2.24366V3.40866C6.98841 3.39866 7.61508 3.39866 8.32008 3.39866H11.6801C12.3851 3.39866 13.0109 3.39866 13.5701 3.40866V2.24366C13.5701 1.92533 13.8517 1.66699 14.2001 1.66699C14.5484 1.66699 14.8301 1.92533 14.8301 2.24366V3.45866C16.0384 3.54699 16.8326 3.76533 17.4159 4.29866C17.9992 4.83283 18.2367 5.55949 18.3334 6.66699V7.50033H1.66675V6.66699C1.76341 5.55949 2.00091 4.83366 2.58425 4.29866C3.16758 3.76533 3.96091 3.54699 5.17008 3.45866V2.24366C5.17008 1.92533 5.45258 1.66699 5.80008 1.66699Z" fill="currentColor"/>
<path opacity="0.35" d="M18.3332 11.6667V10C18.3332 9.30083 18.3224 8.05417 18.3116 7.5H1.67156C1.66073 8.05417 1.67156 9.30083 1.67156 10V11.6667C1.67156 14.8092 1.67156 16.3808 2.64656 17.3567C3.62406 18.3333 5.1949 18.3333 8.33656 18.3333H11.6699C14.8116 18.3333 16.3816 18.3333 17.3582 17.3567C18.3332 16.3808 18.3332 14.8092 18.3332 11.6667Z" fill="currentColor"/>
<path d="M15 13.75C15 14.0815 14.8683 14.3995 14.6339 14.6339C14.3995 14.8683 14.0815 15 13.75 15C13.4185 15 13.1005 14.8683 12.8661 14.6339C12.6317 14.3995 12.5 14.0815 12.5 13.75C12.5 13.4185 12.6317 13.1005 12.8661 12.8661C13.1005 12.6317 13.4185 12.5 13.75 12.5C14.0815 12.5 14.3995 12.6317 14.6339 12.8661C14.8683 13.1005 15 13.4185 15 13.75Z" fill="currentColor"/>
</svg>
