<svg viewBox="0 0 20 20" fill="none" xmlns="http://www.w3.org/2000/svg">
<path opacity="0.32" d="M2.84172 1.66699C2.26642 1.66699 1.80005 2.13337 1.80005 2.70866C1.80005 3.28396 2.26642 3.75033 2.84172 3.75033H3.54367C3.74147 3.75033 3.91188 3.8886 3.95226 4.0822C4.13817 4.97337 4.66463 7.46612 5.08709 9.16698C5.60937 11.2699 6.08271 12.7852 6.38108 13.6693C6.74932 13.4558 7.17707 13.3336 7.63338 13.3336C8.70492 13.3336 9.619 14.0077 9.97467 14.955C10.5981 14.9828 11.3259 15.0003 12.1704 15.0003C12.8849 15.0003 13.5034 14.9878 14.0376 14.9671C14.39 14.0135 15.3073 13.3336 16.3834 13.3336C16.8452 13.3336 17.2778 13.4588 17.649 13.6771C17.9435 12.9357 18.3393 11.6945 18.6751 9.79198C18.9159 8.42714 19.0639 7.40262 19.1549 6.65882C19.2667 5.74516 18.5538 5.00033 17.6334 5.00033H6.38338L5.86567 2.92943C5.68017 2.18749 5.01355 1.66699 4.24876 1.66699H2.84172Z" fill="currentColor"/>
<path d="M14.6253 8.82874C14.6742 8.34058 14.2908 7.91699 13.8002 7.91699C13.3742 7.91699 13.0176 8.23978 12.9752 8.66374L12.7244 11.1719C12.6756 11.6601 13.0589 12.0837 13.5495 12.0837C13.9755 12.0837 14.3322 11.7608 14.3746 11.3369L14.6253 8.82874Z" fill="currentColor"/>
<path d="M10.6246 8.66374C10.5822 8.23978 10.2255 7.91699 9.7995 7.91699C9.30891 7.91699 8.92558 8.34058 8.97441 8.82874L9.22516 11.3369C9.26758 11.7608 9.62425 12.0837 10.0502 12.0837C10.5408 12.0837 10.9242 11.6601 10.8753 11.1719L10.6246 8.66374Z" fill="currentColor"/>
<path d="M13.8835 15.833C13.8835 17.2138 15.0028 18.333 16.3835 18.333C17.7642 18.333 18.8835 17.2138 18.8835 15.833C18.8835 14.4523 17.7642 13.333 16.3835 13.333C15.0028 13.333 13.8835 14.4523 13.8835 15.833Z" fill="currentColor"/>
<path d="M5.13354 15.833C5.13354 17.2138 6.25284 18.333 7.63354 18.333C9.01424 18.333 10.1336 17.2138 10.1336 15.833C10.1336 14.4523 9.01424 13.333 7.63354 13.333C6.25284 13.333 5.13354 14.4523 5.13354 15.833Z" fill="currentColor"/>
</svg>
