<svg  viewBox="0 0 28 28" fill="currentColor" xmlns="http://www.w3.org/2000/svg">
<path opacity="0.35" d="M19.587 0.666504H8.41366C3.56033 0.666504 0.666992 3.55984 0.666992 8.41317V19.5732C0.666992 24.4398 3.56033 27.3332 8.41366 27.3332H19.5737C24.427 27.3332 27.3203 24.4398 27.3203 19.5865V8.41317C27.3337 3.55984 24.4403 0.666504 19.587 0.666504Z" fill="#94A3B8"/>
<path d="M7.17383 23.1999C6.62716 23.1999 6.17383 22.7466 6.17383 22.1999V19.4399C6.17383 18.8933 6.62716 18.4399 7.17383 18.4399C7.72049 18.4399 8.17383 18.8933 8.17383 19.4399V22.1999C8.17383 22.7599 7.72049 23.1999 7.17383 23.1999Z" fill="#94A3B8"/>
<path d="M14 23.1998C13.4533 23.1998 13 22.7465 13 22.1998V16.6665C13 16.1198 13.4533 15.6665 14 15.6665C14.5467 15.6665 15 16.1198 15 16.6665V22.1998C15 22.7598 14.5467 23.1998 14 23.1998Z" fill="#94A3B8"/>
<path d="M20.8271 23.2001C20.2805 23.2001 19.8271 22.7467 19.8271 22.2001V13.9067C19.8271 13.3601 20.2805 12.9067 20.8271 12.9067C21.3738 12.9067 21.8271 13.3601 21.8271 13.9067V22.2001C21.8271 22.7601 21.3871 23.2001 20.8271 23.2001Z" fill="#94A3B8"/>
<path d="M21.827 5.75981C21.827 5.69314 21.8003 5.61314 21.787 5.54647C21.7736 5.49314 21.7603 5.42647 21.747 5.37314C21.7203 5.31981 21.6803 5.2798 21.6536 5.22647C21.6136 5.17314 21.5736 5.10647 21.5203 5.06647C21.507 5.05314 21.507 5.03981 21.4936 5.03981C21.4536 5.01314 21.4136 4.9998 21.3736 4.97314C21.3203 4.93314 21.2536 4.89314 21.187 4.86647C21.1203 4.8398 21.0536 4.8398 20.987 4.82647C20.9336 4.81314 20.8936 4.7998 20.8403 4.7998H16.9336C16.387 4.7998 15.9336 5.25314 15.9336 5.7998C15.9336 6.34647 16.387 6.7998 16.9336 6.7998H18.6003C15.427 10.1331 11.427 12.4798 6.93363 13.6131C6.4003 13.7465 6.06697 14.2931 6.2003 14.8265C6.30697 15.2798 6.7203 15.5865 7.17363 15.5865C7.25363 15.5865 7.33363 15.5731 7.41363 15.5598C12.1736 14.3731 16.427 11.9065 19.827 8.41314V9.70647C19.827 10.2531 20.2803 10.7065 20.827 10.7065C21.3736 10.7065 21.827 10.2531 21.827 9.70647V5.7998C21.827 5.78647 21.827 5.77314 21.827 5.75981Z" fill="#94A3B8"/>
</svg>
