<svg  viewBox="0 0 20 20" fill="none" xmlns="http://www.w3.org/2000/svg">
<path d="M18.3334 18.333H1.66669C1.32502 18.333 1.04169 18.0497 1.04169 17.708C1.04169 17.3663 1.32502 17.083 1.66669 17.083H18.3334C18.675 17.083 18.9584 17.3663 18.9584 17.708C18.9584 18.0497 18.675 18.333 18.3334 18.333Z" fill="#CBD5E1"/>
<path d="M8.125 3.33366V18.3337H11.875V3.33366C11.875 2.41699 11.5 1.66699 10.375 1.66699H9.625C8.5 1.66699 8.125 2.41699 8.125 3.33366Z" fill="#CBD5E1"/>
<path opacity="0.35" d="M2.5 8.33366V18.3337H5.83333V8.33366C5.83333 7.41699 5.5 6.66699 4.5 6.66699H3.83333C2.83333 6.66699 2.5 7.41699 2.5 8.33366Z" fill="#CBD5E1"/>
<path opacity="0.35" d="M14.1667 12.4997V18.333H17.5V12.4997C17.5 11.583 17.1667 10.833 16.1667 10.833H15.5C14.5 10.833 14.1667 11.583 14.1667 12.4997Z" fill="#CBD5E1"/>
</svg>
