<svg  viewBox="0 0 21 20" fill="none" xmlns="http://www.w3.org/2000/svg">
<path opacity="0.4" d="M18.8249 5.01647C18.8416 5.21647 18.825 5.42479 18.775 5.63313L15.9666 16.9081C15.7666 17.7498 15.0166 18.3331 14.15 18.3331H3.19995C1.94161 18.3331 1.04996 17.0998 1.41663 15.8915L4.92495 4.61643C5.16662 3.8331 5.89163 3.2998 6.7083 3.2998H16.9583C17.7583 3.2998 18.4083 3.7748 18.6833 4.44147C18.7666 4.61647 18.8083 4.81647 18.8249 5.01647Z" fill="currentColor"/>
<path d="M19.6583 16.35C19.7417 17.425 18.8917 18.3333 17.8167 18.3333H14.15C15.0167 18.3333 15.7667 17.75 15.9667 16.9083L18.775 5.63334C18.825 5.42501 18.8417 5.21668 18.825 5.01668L18.8334 5L19.6583 16.35Z" fill="currentColor"/>
<path d="M8.56663 5.94182C8.51663 5.94182 8.46664 5.93347 8.41664 5.92513C8.08331 5.8418 7.87498 5.50849 7.95832 5.16682L8.82497 1.56682C8.9083 1.23348 9.24164 1.03349 9.5833 1.10849C9.91664 1.19183 10.125 1.52514 10.0417 1.86681L9.17498 5.46681C9.10831 5.75014 8.84997 5.94182 8.56663 5.94182Z" fill="currentColor"/>
<path d="M14.15 5.94983C14.1083 5.94983 14.0583 5.94982 14.0166 5.93315C13.6833 5.85815 13.4666 5.52481 13.5333 5.19147L14.3166 1.57483C14.3916 1.23317 14.7249 1.02482 15.0583 1.09149C15.3916 1.16649 15.6083 1.49983 15.5416 1.83317L14.7583 5.4498C14.6999 5.7498 14.4416 5.94983 14.15 5.94983Z" fill="currentColor"/>
<path d="M13.5833 10.625H6.91663C6.57496 10.625 6.29163 10.3417 6.29163 10C6.29163 9.65833 6.57496 9.375 6.91663 9.375H13.5833C13.925 9.375 14.2083 9.65833 14.2083 10C14.2083 10.3417 13.925 10.625 13.5833 10.625Z" fill="currentColor"/>
<path d="M12.75 13.958H6.08337C5.74171 13.958 5.45837 13.6747 5.45837 13.333C5.45837 12.9913 5.74171 12.708 6.08337 12.708H12.75C13.0917 12.708 13.375 12.9913 13.375 13.333C13.375 13.6747 13.0917 13.958 12.75 13.958Z" fill="currentColor"/>
</svg>
