<svg  viewBox="0 0 20 20" fill="none" xmlns="http://www.w3.org/2000/svg">
<path opacity="0.35" d="M16.6666 6.87533V15.0003C16.6666 17.5003 15.1749 18.3337 13.3333 18.3337H6.66659C4.82492 18.3337 3.33325 17.5003 3.33325 15.0003V6.87533C3.33325 4.16699 4.82492 3.54199 6.66659 3.54199C6.66659 4.05866 6.8749 4.52532 7.21656 4.86699C7.55823 5.20866 8.02492 5.41699 8.54158 5.41699H11.4583C12.4916 5.41699 13.3333 4.57533 13.3333 3.54199C15.1749 3.54199 16.6666 4.16699 16.6666 6.87533Z" fill="currentColor"/>
<path d="M13.3334 3.54199C13.3334 4.57533 12.4917 5.41699 11.4584 5.41699H8.54175C8.02508 5.41699 7.55839 5.20866 7.21673 4.86699C6.87506 4.52532 6.66675 4.05866 6.66675 3.54199C6.66675 2.50866 7.50841 1.66699 8.54175 1.66699H11.4584C11.9751 1.66699 12.4418 1.87533 12.7834 2.217C13.1251 2.55866 13.3334 3.02533 13.3334 3.54199Z" fill="currentColor"/>
<path d="M10.0001 11.458H6.66675C6.32508 11.458 6.04175 11.1747 6.04175 10.833C6.04175 10.4913 6.32508 10.208 6.66675 10.208H10.0001C10.3417 10.208 10.6251 10.4913 10.6251 10.833C10.6251 11.1747 10.3417 11.458 10.0001 11.458Z" fill="currentColor"/>
<path d="M13.3334 14.792H6.66675C6.32508 14.792 6.04175 14.5087 6.04175 14.167C6.04175 13.8253 6.32508 13.542 6.66675 13.542H13.3334C13.6751 13.542 13.9584 13.8253 13.9584 14.167C13.9584 14.5087 13.6751 14.792 13.3334 14.792Z" fill="currentColor"/>
</svg>
