<svg  viewBox="0 0 20 21" fill="none" xmlns="http://www.w3.org/2000/svg">
<path opacity="0.5" fill-rule="evenodd" clip-rule="evenodd" d="M9.99999 3.83301C6.325 3.83301 3.33333 6.82467 3.33333 10.4997C3.33333 14.1747 6.325 17.1663 9.99999 17.1663C10.2333 17.1663 10.4167 16.983 10.4167 16.7497C10.4167 16.6163 10.35 16.5163 10.3 16.458C9.95833 16.0747 9.77499 15.583 9.77499 15.083C9.77499 13.933 10.7083 12.9997 11.8583 12.9997H13.3333C15.175 12.9997 16.6667 11.508 16.6667 9.66634C16.6667 6.44967 13.675 3.83301 9.99999 3.83301ZM5.41666 11.333C4.72499 11.333 4.16666 10.7747 4.16666 10.083C4.16666 9.39134 4.72499 8.83301 5.41666 8.83301C6.10833 8.83301 6.66666 9.39134 6.66666 10.083C6.66666 10.7747 6.10833 11.333 5.41666 11.333ZM6.66666 6.74967C6.66666 7.44134 7.22499 7.99967 7.91666 7.99967C8.60833 7.99967 9.16666 7.44134 9.16666 6.74967C9.16666 6.05801 8.60833 5.49967 7.91666 5.49967C7.22499 5.49967 6.66666 6.05801 6.66666 6.74967ZM12.0833 7.99967C11.3917 7.99967 10.8333 7.44134 10.8333 6.74967C10.8333 6.05801 11.3917 5.49967 12.0833 5.49967C12.775 5.49967 13.3333 6.05801 13.3333 6.74967C13.3333 7.44134 12.775 7.99967 12.0833 7.99967ZM14.5833 11.333C15.275 11.333 15.8333 10.7747 15.8333 10.083C15.8333 9.39134 15.275 8.83301 14.5833 8.83301C13.8917 8.83301 13.3333 9.39134 13.3333 10.083C13.3333 10.7747 13.8917 11.333 14.5833 11.333Z" fill="currentColor"/>
<path d="M10 2.16699C5.40834 2.16699 1.66667 5.90866 1.66667 10.5003C1.66667 15.092 5.40834 18.8337 10 18.8337C11.15 18.8337 12.0833 17.9003 12.0833 16.7503C12.0833 16.242 11.8917 15.742 11.55 15.3587C11.4833 15.2837 11.4417 15.1837 11.4417 15.0837C11.4417 14.8503 11.625 14.667 11.8583 14.667H13.3333C16.0917 14.667 18.3333 12.4253 18.3333 9.66699C18.3333 5.53366 14.5917 2.16699 10 2.16699Z" fill="url(#paint0_linear_4399_33399)"/>
<path d="M5.41667 11.333C6.10703 11.333 6.66667 10.7734 6.66667 10.083C6.66667 9.39265 6.10703 8.83301 5.41667 8.83301C4.72632 8.83301 4.16667 9.39265 4.16667 10.083C4.16667 10.7734 4.72632 11.333 5.41667 11.333Z" fill="white"/>
<path d="M7.91667 8C8.60703 8 9.16667 7.44036 9.16667 6.75C9.16667 6.05964 8.60703 5.5 7.91667 5.5C7.22632 5.5 6.66667 6.05964 6.66667 6.75C6.66667 7.44036 7.22632 8 7.91667 8Z" fill="white"/>
<path d="M12.0833 8C12.7737 8 13.3333 7.44036 13.3333 6.75C13.3333 6.05964 12.7737 5.5 12.0833 5.5C11.393 5.5 10.8333 6.05964 10.8333 6.75C10.8333 7.44036 11.393 8 12.0833 8Z" fill="white"/>
<path d="M14.5833 11.333C15.2737 11.333 15.8333 10.7734 15.8333 10.083C15.8333 9.39265 15.2737 8.83301 14.5833 8.83301C13.893 8.83301 13.3333 9.39265 13.3333 10.083C13.3333 10.7734 13.893 11.333 14.5833 11.333Z" fill="white"/>
<defs>
<linearGradient id="paint0_linear_4399_33399" x1="10" y1="2.16699" x2="10" y2="18.8337" gradientUnits="userSpaceOnUse">
<stop stop-color="currentColor"/>
<stop offset="1" stop-color="#6711F2"/>
</linearGradient>
</defs>
</svg>
