<svg viewBox="0 0 24 24" fill="none" xmlns="http://www.w3.org/2000/svg">
<path fill-rule="evenodd" clip-rule="evenodd" d="M2.25 2.25C2.05109 2.25 1.86032 2.32902 1.71967 2.46967C1.57902 2.61032 1.5 2.80109 1.5 3C1.5 3.19891 1.57902 3.38968 1.71967 3.53033C1.86032 3.67098 2.05109 3.75 2.25 3.75H3V14.25C3 15.0456 3.31607 15.8087 3.87868 16.3713C4.44129 16.9339 5.20435 17.25 6 17.25H7.21L6.038 20.763C5.97514 20.9518 5.98988 21.1579 6.07896 21.3359C6.16804 21.5138 6.32417 21.6491 6.513 21.712C6.70183 21.7749 6.9079 21.7601 7.08588 21.671C7.26385 21.582 7.39914 21.4258 7.462 21.237L7.791 20.25H16.209L16.539 21.237C16.6073 21.4186 16.7433 21.5666 16.9184 21.6501C17.0935 21.7335 17.2941 21.7459 17.4782 21.6845C17.6622 21.6232 17.8153 21.4929 17.9053 21.3211C17.9954 21.1493 18.0153 20.9492 17.961 20.763L16.791 17.25H18C18.7956 17.25 19.5587 16.9339 20.1213 16.3713C20.6839 15.8087 21 15.0456 21 14.25V3.75H21.75C21.9489 3.75 22.1397 3.67098 22.2803 3.53033C22.421 3.38968 22.5 3.19891 22.5 3C22.5 2.80109 22.421 2.61032 22.2803 2.46967C22.1397 2.32902 21.9489 2.25 21.75 2.25H2.25ZM8.79 17.25H15.21L15.71 18.75H8.29L8.79 17.25ZM16.875 8.255C16.961 8.20611 17.0364 8.1407 17.097 8.06253C17.1577 7.98436 17.2022 7.89497 17.2281 7.79952C17.254 7.70406 17.2608 7.60443 17.2481 7.50634C17.2353 7.40826 17.2033 7.31366 17.1538 7.228C17.1044 7.14235 17.0385 7.06732 16.9599 7.00724C16.8813 6.94715 16.7916 6.90321 16.696 6.87793C16.6004 6.85264 16.5007 6.84653 16.4027 6.85993C16.3047 6.87333 16.2103 6.90598 16.125 6.956C14.7615 7.74523 13.5554 8.7792 12.567 10.006L11.03 8.47C10.8894 8.32955 10.6988 8.25066 10.5 8.25066C10.3012 8.25066 10.1106 8.32955 9.97 8.47L6.97 11.47C6.89631 11.5387 6.83721 11.6215 6.79622 11.7135C6.75523 11.8055 6.73319 11.9048 6.73141 12.0055C6.72963 12.1062 6.74816 12.2062 6.78588 12.2996C6.8236 12.393 6.87974 12.4778 6.95096 12.549C7.02218 12.6203 7.10701 12.6764 7.2004 12.7141C7.29379 12.7518 7.39382 12.7704 7.49452 12.7686C7.59523 12.7668 7.69454 12.7448 7.78654 12.7038C7.87854 12.6628 7.96134 12.6037 8.03 12.53L10.5 10.06L12.117 11.678C12.1946 11.7556 12.2882 11.8152 12.3913 11.8526C12.4945 11.8901 12.6046 11.9045 12.7138 11.8947C12.8231 11.885 12.9289 11.8514 13.0238 11.7963C13.1187 11.7413 13.2003 11.6661 13.263 11.576C14.2095 10.2181 15.4425 9.0844 16.875 8.255Z" fill="#3B82F6"/>
</svg>
