<svg  viewBox="0 0 21 20" fill="none" xmlns="http://www.w3.org/2000/svg">
<path opacity="0.35" d="M13.4 2.5H6.76667C3.89167 2.5 2.16667 4.21667 2.16667 7.1V13.725C2.16667 16.6167 3.89167 18.3333 6.76667 18.3333H13.3917C16.275 18.3333 17.9917 16.6167 17.9917 13.7333V7.1C18 4.21667 16.275 2.5 13.4 2.5Z" fill="currentColor"/>
<path d="M18.0167 2.48324C16.525 0.983238 15.0667 0.949904 13.5333 2.48324L12.5917 3.41657C12.5083 3.4999 12.4833 3.61657 12.5167 3.7249C13.1 5.76657 14.7333 7.3999 16.775 7.98324C16.8 7.99157 16.8417 7.99157 16.8667 7.99157C16.95 7.99157 17.0333 7.95824 17.0917 7.8999L18.0167 6.96657C18.775 6.20824 19.15 5.48324 19.15 4.74157C19.15 3.99157 18.775 3.2499 18.0167 2.48324Z" fill="currentColor"/>
<path d="M15.3833 8.68353C15.1583 8.57519 14.9417 8.46686 14.7417 8.34186C14.575 8.24186 14.4083 8.13353 14.25 8.01686C14.1167 7.93353 13.9667 7.80853 13.8167 7.68353C13.8 7.6752 13.75 7.63353 13.6833 7.56686C13.425 7.35853 13.15 7.07519 12.8917 6.76686C12.875 6.75019 12.825 6.70019 12.7833 6.62519C12.7 6.53353 12.575 6.3752 12.4667 6.2002C12.375 6.08353 12.2667 5.91686 12.1667 5.74186C12.0417 5.53353 11.9333 5.3252 11.8333 5.10853C11.725 4.8752 11.6417 4.65853 11.5667 4.4502L7.08334 8.93353C6.79167 9.22519 6.50834 9.7752 6.45 10.1835L6.09167 12.6669C6.01667 13.1919 6.15834 13.6835 6.48334 14.0085C6.75834 14.2835 7.13334 14.4252 7.55 14.4252C7.64167 14.4252 7.73334 14.4169 7.825 14.4085L10.3 14.0585C10.7083 14.0002 11.2583 13.7252 11.55 13.4252L16.0333 8.94186C15.825 8.87519 15.6167 8.78353 15.3833 8.68353Z" fill="currentColor"/>
</svg>
