<svg  viewBox="0 0 20 20" fill="none" xmlns="http://www.w3.org/2000/svg">
<path d="M9.99996 2.1582V11.3415L2.20829 16.7915C1.49996 15.9499 1.45829 14.6749 2.24996 13.2499L4.84996 8.57487L7.29996 4.16654C8.04163 2.8332 9.01663 2.1582 9.99996 2.1582Z" fill="currentColor"/>
<path opacity="0.5" d="M17.7917 16.7918C17.25 17.4501 16.3084 17.8418 15.05 17.8418H4.95004C3.69171 17.8418 2.75004 17.4501 2.20837 16.7918L10 11.3418L17.7917 16.7918Z" fill="currentColor"/>
<path opacity="0.35" d="M17.7917 16.7915L10 11.3415V2.1582C10.9833 2.1582 11.9583 2.8332 12.7 4.16654L15.15 8.57487L17.75 13.2499C18.5417 14.6749 18.5 15.9499 17.7917 16.7915Z" fill="currentColor"/>
</svg>
