<svg viewBox="0 0 20 20" fill="none" xmlns="http://www.w3.org/2000/svg">
<path fill-rule="evenodd" clip-rule="evenodd" d="M7.5 1.25H4.6875C3.82417 1.25 3.125 1.95 3.125 2.8125V17.1875C3.125 18.05 3.825 18.75 4.6875 18.75H15.3125C16.175 18.75 16.875 18.05 16.875 17.1875V10.625C16.875 9.7962 16.5458 9.00134 15.9597 8.41529C15.3737 7.82924 14.5788 7.5 13.75 7.5H12.1875C11.7731 7.5 11.3757 7.33538 11.0826 7.04235C10.7896 6.74933 10.625 6.3519 10.625 5.9375V4.375C10.625 3.5462 10.2958 2.75134 9.70971 2.16529C9.12366 1.57924 8.3288 1.25 7.5 1.25ZM13.0083 10.3633C13.0583 10.2967 13.0945 10.2208 13.1147 10.14C13.135 10.0592 13.1388 9.97512 13.1261 9.89279C13.1134 9.81047 13.0844 9.73152 13.0407 9.66058C12.9971 9.58964 12.9396 9.52815 12.8719 9.47971C12.8041 9.43127 12.7273 9.39687 12.6461 9.37852C12.5648 9.36018 12.4807 9.35826 12.3987 9.37288C12.3167 9.38751 12.2385 9.41838 12.1686 9.46368C12.0987 9.50898 12.0385 9.56779 11.9917 9.63667L9.295 13.4117L7.94167 12.0583C7.82319 11.9479 7.66648 11.8878 7.50456 11.8907C7.34265 11.8935 7.18816 11.9591 7.07365 12.0736C6.95914 12.1882 6.89354 12.3426 6.89069 12.5046C6.88783 12.6665 6.94793 12.8232 7.05833 12.9417L8.93333 14.8167C8.99749 14.8808 9.07483 14.9302 9.15999 14.9614C9.24515 14.9926 9.33608 15.0049 9.42647 14.9974C9.51686 14.99 9.60455 14.963 9.68344 14.9182C9.76233 14.8735 9.83054 14.8121 9.88333 14.7383L13.0083 10.3633Z" 
fill="currentColor"/>
<path d="M10.8096 1.51367C11.4983 2.30781 11.8769 3.32413 11.8754 4.37534V5.93784C11.8754 6.11034 12.0154 6.25034 12.1879 6.25034H13.7504C14.8016 6.24888 15.8179 6.62741 16.6121 7.31617C16.2454 5.92176 15.515 4.64975 14.4955 3.63024C13.476 2.61073 12.204 1.88031 10.8096 1.51367Z" fill="currentColor"/>
</svg>
