<svg  viewBox="0 0 20 20" fill="none" xmlns="http://www.w3.org/2000/svg">
<path opacity="0.35" d="M3.33325 8.29612V4.16699C3.33325 2.78628 4.45254 1.66699 5.83325 1.66699H14.1666C15.5473 1.66699 16.6666 2.78628 16.6666 4.16699V8.29612C16.6666 8.84174 16.4015 9.35182 15.9452 9.65082C14.5347 10.575 11.4249 12.5003 9.99992 12.5003C8.57492 12.5003 5.46521 10.575 4.05468 9.65082C3.59832 9.35182 3.33325 8.84174 3.33325 8.29612Z" fill="currentColor"/>
<path d="M3.3326 5.20898C2.90802 5.52414 2.53279 5.81238 2.23172 6.04782C1.73006 6.44011 1.41559 7.01865 1.37315 7.65407C1.31541 8.51873 1.24927 9.97024 1.24927 12.0832C1.24927 14.0813 1.36757 15.488 1.4781 16.3662C1.56923 17.0902 2.05401 17.6644 2.76876 17.812C3.91479 18.0486 6.10318 18.3332 9.99925 18.3332C13.8953 18.3332 16.0837 18.0486 17.2297 17.812C17.9445 17.6644 18.4293 17.0902 18.5204 16.3662C18.631 15.488 18.7492 14.0813 18.7492 12.0832C18.7492 9.97024 18.6832 8.51873 18.6254 7.65407C18.5829 7.01865 18.2685 6.44011 17.7668 6.04782C17.4657 5.81238 17.0905 5.52414 16.6659 5.20898V8.29561C16.6659 8.84124 16.4008 9.35132 15.9445 9.65032C14.534 10.5745 11.4242 12.4998 9.99925 12.4998C8.57425 12.4998 5.46456 10.5745 4.05403 9.65032C3.59767 9.35132 3.3326 8.84124 3.3326 8.29561V5.20898Z" fill="currentColor"/>
<path d="M5.83252 4.79199C5.83252 4.44683 6.11235 4.16699 6.45752 4.16699H10.2075C10.5527 4.16699 10.8325 4.44683 10.8325 4.79199C10.8325 5.13716 10.5527 5.41699 10.2075 5.41699H6.45752C6.11235 5.41699 5.83252 5.13716 5.83252 4.79199Z" fill="currentColor"/>
<path d="M5.83252 7.70801C5.83252 7.36284 6.11235 7.08301 6.45752 7.08301H12.7075C13.0527 7.08301 13.3325 7.36284 13.3325 7.70801C13.3325 8.05317 13.0527 8.33301 12.7075 8.33301H6.45752C6.11235 8.33301 5.83252 8.05317 5.83252 7.70801Z" fill="currentColor"/>
</svg>
