<svg  viewBox="0 0 20 20" fill="none" xmlns="http://www.w3.org/2000/svg">
<path opacity="0.35" d="M18.1333 13.267L12.8 3.66699C12.0833 2.37533 11.0916 1.66699 9.99998 1.66699C8.90831 1.66699 7.91665 2.37533 7.19998 3.66699L1.86665 13.267C1.19165 14.492 1.11665 15.667 1.65831 16.592C2.19998 17.517 3.26665 18.0253 4.66665 18.0253H15.3333C16.7333 18.0253 17.8 17.517 18.3416 16.592C18.8833 15.667 18.8083 14.4837 18.1333 13.267Z" fill="currentColor"/>
<path d="M10 12.2917C9.65833 12.2917 9.375 12.0083 9.375 11.6667V7.5C9.375 7.15833 9.65833 6.875 10 6.875C10.3417 6.875 10.625 7.15833 10.625 7.5V11.6667C10.625 12.0083 10.3417 12.2917 10 12.2917Z" fill="currentColor"/>
<path d="M9.99996 14.9998C9.94996 14.9998 9.89163 14.9915 9.83329 14.9831C9.78329 14.9748 9.73329 14.9581 9.68329 14.9331C9.63329 14.9165 9.58329 14.8915 9.53329 14.8581C9.49163 14.8248 9.44996 14.7915 9.40829 14.7581C9.25829 14.5998 9.16663 14.3831 9.16663 14.1665C9.16663 13.9498 9.25829 13.7331 9.40829 13.5748C9.44996 13.5415 9.49163 13.5081 9.53329 13.4748C9.58329 13.4415 9.63329 13.4165 9.68329 13.3998C9.73329 13.3748 9.78329 13.3581 9.83329 13.3498C9.94163 13.3248 10.0583 13.3248 10.1583 13.3498C10.2166 13.3581 10.2666 13.3748 10.3166 13.3998C10.3666 13.4165 10.4166 13.4415 10.4666 13.4748C10.5083 13.5081 10.55 13.5415 10.5916 13.5748C10.7416 13.7331 10.8333 13.9498 10.8333 14.1665C10.8333 14.3831 10.7416 14.5998 10.5916 14.7581C10.55 14.7915 10.5083 14.8248 10.4666 14.8581C10.4166 14.8915 10.3666 14.9165 10.3166 14.9331C10.2666 14.9581 10.2166 14.9748 10.1583 14.9831C10.1083 14.9915 10.05 14.9998 9.99996 14.9998Z" fill="currentColor"/>
</svg>
