<svg  viewBox="0 0 20 20" fill="none" xmlns="http://www.w3.org/2000/svg">
<path d="M4.29163 18.3337C3.94996 18.3337 3.66663 18.0503 3.66663 17.7087V2.29199C3.66663 1.95033 3.94996 1.66699 4.29163 1.66699C4.63329 1.66699 4.91663 1.95033 4.91663 2.29199V17.7087C4.91663 18.0503 4.63329 18.3337 4.29163 18.3337Z" fill="currentColor"/>
<path opacity="0.35" d="M15.0166 10.2755L14 9.25879C13.7583 9.05046 13.6166 8.74212 13.6083 8.40046C13.5916 8.02546 13.7416 7.65046 14.0166 7.37546L15.0166 6.37546C15.8833 5.50879 16.2083 4.67546 15.9333 4.01712C15.6666 3.36712 14.8416 3.00879 13.625 3.00879H4.29164C4.11664 3.01712 3.97498 3.15879 3.97498 3.33379V13.3338C3.97498 13.5088 4.11664 13.6505 4.29164 13.6505H13.625C14.825 13.6505 15.6333 13.2838 15.9083 12.6255C16.1833 11.9588 15.8666 11.1338 15.0166 10.2755Z" fill="currentColor"/>
</svg>
