<svg  viewBox="0 0 24 24" fill="none" xmlns="http://www.w3.org/2000/svg">
<path d="M12.2 5.87C12.13 5.87 12.06 5.87 12 5.88V2.00999C12.07 1.99999 12.13 2 12.2 2C14.46 2 16.4 2.69 17.99 3.86C18.49 4.22 18.53 4.95 18.09 5.38L16.7 6.74001C16.36 7.07001 15.84 7.13 15.45 6.86C14.7 6.34 13.63 5.87 12.2 5.87Z" fill="currentColor"/>
<path d="M21.8 12.2199C21.8 15.2699 20.71 17.8299 18.82 19.5799C17.17 21.1099 14.9 21.9999 12.2 21.9999C12.13 21.9999 12.07 21.9999 12 21.9899V18.1199C12.07 18.1299 12.13 18.1299 12.2 18.1299C13.69 18.1299 14.82 17.7199 15.67 17.1299C17 16.1999 17.6 14.8099 17.71 13.8899H13.2C12.65 13.8899 12.2 13.4399 12.2 12.8899V11.1799C12.2 10.6299 12.65 10.1799 13.2 10.1799H20.75C21.26 10.1799 21.69 10.5599 21.74 11.0699C21.78 11.4199 21.8 11.7899 21.8 12.2199Z" fill="currentColor"/>
<path opacity="0.4" d="M6.5002 10.02C6.3002 10.64 6.1802 11.31 6.1802 12C6.1802 12.69 6.3002 13.35 6.5102 13.98C7.2902 16.33 9.4502 18.04 12.0002 18.12V21.99C8.1802 21.92 4.8902 19.7 3.2802 16.49H3.2702C2.5902 15.13 2.2002 13.61 2.2002 12C2.2002 10.39 2.5902 8.87001 3.2702 7.51001C4.8802 4.30001 8.1702 2.08001 12.0002 2.01001V5.88002C9.6402 5.95002 7.6302 7.41001 6.7102 9.48001C6.6302 9.66001 6.5602 9.84002 6.5002 10.02Z" fill="currentColor"/>
</svg>
