<svg  viewBox="0 0 20 20" fill="none" xmlns="http://www.w3.org/2000/svg">
<g clip-path="url(#clip0_4314_12611)">
<path opacity="0.35" d="M2.17447 19.1533C1.47735 19.1356 0.949319 18.7163 0.892327 18.0213C0.858194 17.605 0.833252 17.0328 0.833252 16.2497C0.833252 15.4665 0.858194 14.8943 0.892327 14.4781C0.949319 13.7831 1.47735 13.3638 2.17447 13.3461C2.47946 13.3383 2.8608 13.333 3.33325 13.333C3.8057 13.333 4.18704 13.3383 4.49204 13.3461C5.18917 13.3638 5.71717 13.7831 5.77417 14.4781C5.80829 14.8943 5.83325 15.4665 5.83325 16.2497C5.83325 17.0328 5.80829 17.605 5.77417 18.0213C5.71717 18.7163 5.18917 19.1356 4.49204 19.1533C4.18704 19.161 3.8057 19.1663 3.33325 19.1663C2.8608 19.1663 2.47946 19.161 2.17447 19.1533Z" fill="currentColor"/>
<path opacity="0.35" d="M15.7044 19.1493C14.8923 19.1173 14.3228 18.5464 14.2701 17.7353C14.2155 16.8943 14.1665 15.5281 14.1665 13.3333C14.1665 11.1386 14.2155 9.7725 14.2701 8.93142C14.3228 8.12029 14.8923 7.54933 15.7044 7.51729C15.9724 7.50671 16.2906 7.5 16.6665 7.5C17.0424 7.5 17.3606 7.50671 17.6286 7.51729C18.4408 7.54933 19.0103 8.12029 19.0629 8.93142C19.1175 9.7725 19.1665 11.1386 19.1665 13.3333C19.1665 15.5281 19.1175 16.8943 19.0629 17.7353C19.0103 18.5464 18.4408 19.1173 17.6286 19.1493C17.3606 19.1599 17.0424 19.1667 16.6665 19.1667C16.2906 19.1667 15.9724 19.1599 15.7044 19.1493Z" fill="currentColor"/>
<path opacity="0.35" d="M8.9805 19.1523C8.20225 19.1287 7.635 18.6179 7.57908 17.8413C7.53517 17.2309 7.5 16.3277 7.5 14.9997C7.5 13.6717 7.53517 12.7684 7.57908 12.158C7.635 11.3814 8.20225 10.8708 8.9805 10.8471C9.26008 10.8386 9.59692 10.833 10 10.833C10.4031 10.833 10.7399 10.8386 11.0195 10.8471C11.7977 10.8708 12.365 11.3814 12.4209 12.158C12.4648 12.7684 12.5 13.6717 12.5 14.9997C12.5 16.3277 12.4648 17.2309 12.4209 17.8413C12.365 18.6179 11.7977 19.1287 11.0195 19.1523C10.7399 19.1608 10.4031 19.1663 10 19.1663C9.59692 19.1663 9.26008 19.1608 8.9805 19.1523Z" fill="currentColor"/>
<path d="M17.4668 5.04249C17.4254 5.86578 16.6423 6.17512 16.0349 5.61783C15.7588 5.36441 15.4281 5.05245 15.0348 4.66937C14.1463 5.47791 12.7683 6.73853 11.1254 8.26403C10.694 8.66466 9.99325 8.61991 9.61633 8.16758C8.87667 7.28262 8.13121 6.40091 7.36009 5.54316C6.459 6.20474 4.84159 7.46553 3.23649 9.07066C2.82969 9.47741 2.17014 9.47741 1.76335 9.07066C1.35655 8.66383 1.35655 8.00428 1.76335 7.59749C3.33803 6.02283 5.06575 4.54574 6.91871 3.30294L6.92159 3.30101C7.33475 3.02558 7.88538 3.07972 8.2365 3.43083C9.04317 4.23745 9.772 5.1247 10.5098 5.9942C11.764 4.8342 12.8206 3.86772 13.5616 3.19316C13.2253 2.84621 12.9468 2.55038 12.7166 2.29948C12.1591 1.69197 12.4686 0.908642 13.2921 0.867201C14.3428 0.814321 15.4212 0.783206 16.4592 0.977259C16.9265 1.06464 17.2693 1.40752 17.3567 1.87489C17.5508 2.913 17.5198 3.99157 17.4668 5.04249Z" fill="currentColor"/>
</g>

</svg>
