<svg viewBox="0 0 32 32" fill="none" xmlns="http://www.w3.org/2000/svg">
<path d="M28.6666 14.5337V5.46699C28.6666 3.46699 27.8133 2.66699 25.6933 2.66699H20.3066C18.1866 2.66699 17.3333 3.46699 17.3333 5.46699V14.5337C17.3333 16.5337 18.1866 17.3337 20.3066 17.3337H25.6933C27.8133 17.3337 28.6666 16.5337 28.6666 14.5337Z" fill="currentColor"/>
<path d="M14.6666 17.467V26.5337C14.6666 28.5337 13.8133 29.3337 11.6933 29.3337H6.30665C4.18665 29.3337 3.33331 28.5337 3.33331 26.5337V17.467C3.33331 15.467 4.18665 14.667 6.30665 14.667H11.6933C13.8133 14.667 14.6666 15.467 14.6666 17.467Z" fill="currentColor"/>
<path opacity="0.35" d="M28.6666 26.5333V22.8C28.6666 20.8 27.8133 20 25.6933 20H20.3066C18.1866 20 17.3333 20.8 17.3333 22.8V26.5333C17.3333 28.5333 18.1866 29.3333 20.3066 29.3333H25.6933C27.8133 29.3333 28.6666 28.5333 28.6666 26.5333Z" fill="currentColor"/>
<path opacity="0.35" d="M14.6666 9.20033V5.46699C14.6666 3.46699 13.8133 2.66699 11.6933 2.66699H6.30665C4.18665 2.66699 3.33331 3.46699 3.33331 5.46699V9.20033C3.33331 11.2003 4.18665 12.0003 6.30665 12.0003H11.6933C13.8133 12.0003 14.6666 11.2003 14.6666 9.20033Z" fill="currentColor"/>
</svg>
