<svg  viewBox="0 0 32 32" fill="none" xmlns="http://www.w3.org/2000/svg">
<path opacity="0.35" d="M16 29.3337C23.3638 29.3337 29.3333 23.3641 29.3333 16.0003C29.3333 8.63653 23.3638 2.66699 16 2.66699C8.63619 2.66699 2.66666 8.63653 2.66666 16.0003C2.66666 23.3641 8.63619 29.3337 16 29.3337Z" fill="currentColor"/>
<path d="M16 15.8398C17.7526 15.8398 19.1733 14.4191 19.1733 12.6665C19.1733 10.9139 17.7526 9.49316 16 9.49316C14.2474 9.49316 12.8267 10.9139 12.8267 12.6665C12.8267 14.4191 14.2474 15.8398 16 15.8398Z" fill="currentColor"/>
<path d="M19.4534 21.3731L17.8534 19.3597C18.2934 19.2397 18.7333 19.0797 19.1467 18.8797C19.6267 18.6131 19.8 18.0264 19.5467 17.5464C19.2933 17.0664 18.6933 16.8797 18.2133 17.1197C16.8267 17.8131 15.1734 17.8131 13.7867 17.1197C13.2934 16.8664 12.6934 17.0664 12.4401 17.5597C12.1867 18.0531 12.3867 18.653 12.88 18.9064C13.28 19.1064 13.7067 19.2664 14.1333 19.3731L12.5467 21.3864C12.2 21.8264 12.2801 22.4531 12.7067 22.7864C13.1467 23.1331 13.7734 23.0531 14.1067 22.6264L15.9867 20.2531L17.8667 22.6264C18.0667 22.8797 18.36 22.9997 18.6533 22.9997C18.8667 22.9997 19.0934 22.9331 19.2667 22.7864C19.72 22.4397 19.7867 21.8131 19.4534 21.3731Z" fill="currentColor"/>
</svg>
