<svg  viewBox="0 0 18 18" fill="none" xmlns="http://www.w3.org/2000/svg">
<path opacity="0.35" d="M12.4917 0.666992H5.50841C2.47508 0.666992 0.666748 2.47533 0.666748 5.50866V12.492C0.666748 15.5253 2.47508 17.3337 5.50841 17.3337H12.4917C15.5251 17.3337 17.3334 15.5253 17.3334 12.492V5.50866C17.3334 2.47533 15.5251 0.666992 12.4917 0.666992Z" fill="currentColor"/>
<path d="M14.2583 6.3916C14.2583 6.73327 13.9833 7.0166 13.6333 7.0166H9.2583C8.91663 7.0166 8.6333 6.73327 8.6333 6.3916C8.6333 6.04993 8.91663 5.7666 9.2583 5.7666H13.6333C13.9833 5.7666 14.2583 6.04993 14.2583 6.3916Z" fill="#475569"/>
<path d="M7.30838 5.58411L5.43338 7.45911C5.30838 7.58411 5.15005 7.64245 4.99172 7.64245C4.83338 7.64245 4.66672 7.58411 4.55005 7.45911L3.92505 6.83411C3.67505 6.59245 3.67505 6.19245 3.92505 5.95078C4.16672 5.70911 4.55838 5.70911 4.80838 5.95078L4.99172 6.13411L6.42505 4.70078C6.66672 4.45911 7.05838 4.45911 7.30838 4.70078C7.55005 4.94245 7.55005 5.34245 7.30838 5.58411Z" fill="#475569"/>
<path d="M14.2583 12.2256C14.2583 12.5673 13.9833 12.8506 13.6333 12.8506H9.2583C8.91663 12.8506 8.6333 12.5673 8.6333 12.2256C8.6333 11.8839 8.91663 11.6006 9.2583 11.6006H13.6333C13.9833 11.6006 14.2583 11.8839 14.2583 12.2256Z" fill="#475569"/>
<path d="M7.30838 11.4171L5.43338 13.2921C5.30838 13.4171 5.15005 13.4755 4.99172 13.4755C4.83338 13.4755 4.66672 13.4171 4.55005 13.2921L3.92505 12.6671C3.67505 12.4255 3.67505 12.0255 3.92505 11.7838C4.16672 11.5421 4.55838 11.5421 4.80838 11.7838L4.99172 11.9671L6.42505 10.5338C6.66672 10.2921 7.05838 10.2921 7.30838 10.5338C7.55005 10.7755 7.55005 11.1755 7.30838 11.4171Z" fill="#475569"/>
</svg>
