<svg viewBox="0 0 18 18" fill="none" xmlns="http://www.w3.org/2000/svg">
<path d="M10.5 9.00031C10.5 7.34346 9.15682 6.00031 7.5 6.00031C5.84314 6.00031 4.5 7.34346 4.5 9.00031C4.5 12.314 7.18629 15.0003 10.5 15.0003C13.8137 15.0003 16.5 12.314 16.5 9.00031C16.5 6.33482 15.3412 3.93995 13.5 2.29199" stroke="currentColor" stroke-width="1.5" stroke-linecap="round" stroke-linejoin="round"/>
<path opacity="0.35" d="M7.5 9C7.5 10.6568 8.84317 12 10.5 12C12.1568 12 13.5 10.6568 13.5 9C13.5 5.68629 10.8137 3 7.5 3C4.18629 3 1.5 5.68629 1.5 9C1.5 11.6881 2.67845 14.1009 4.5469 15.75" stroke="currentColor" stroke-width="1.5" stroke-linecap="round" stroke-linejoin="round"/>
</svg>
