<svg  viewBox="0 0 32 32" fill="none" xmlns="http://www.w3.org/2000/svg">
<path opacity="0.35" d="M20.3731 6H6.2936C5.02892 6 4 6.74743 4 7.66723C4 8.58591 5.02892 9.33333 6.2936 9.33333H20.3731C21.6377 9.33333 22.6667 8.58591 22.6667 7.66723C22.6667 6.74739 21.6377 6 20.3731 6Z" fill="currentColor"/>
<path d="M25.7063 14.333H11.6269C10.3622 14.333 9.33325 15.0805 9.33325 16.0002C9.33325 16.9189 10.3622 17.6663 11.6269 17.6663H25.7063C26.971 17.6663 27.9999 16.9189 27.9999 16.0002C27.9999 15.0803 26.971 14.333 25.7063 14.333Z" fill="currentColor"/>
<path d="M20.3731 22.667H6.2936C5.02892 22.667 4 23.4145 4 24.3342C4 25.2529 5.02892 26.0003 6.2936 26.0003H20.3731C21.6377 26.0003 22.6667 25.2529 22.6667 24.3342C22.6667 23.4145 21.6377 22.667 20.3731 22.667Z" fill="currentColor"/>
</svg>
