<svg  viewBox="0 0 20 20" fill="none" xmlns="http://www.w3.org/2000/svg">
<path opacity="0.35" fill-rule="evenodd" clip-rule="evenodd" d="M3.43607 1.87007C4.4315 1.76768 6.08737 1.66699 8.75008 1.66699C11.4127 1.66699 13.0687 1.76768 14.0641 1.87007C14.9144 1.95752 15.5332 2.58823 15.6311 3.43736C15.7332 4.32345 15.8334 5.66141 15.8334 7.50033C15.8334 9.33924 15.7332 10.6772 15.6311 11.5633C15.5332 12.4124 14.9145 13.0432 14.0642 13.1306C13.1851 13.221 11.7908 13.3101 9.64258 13.3297C9.30958 13.3327 8.98967 13.4663 8.75592 13.7034L7.34675 15.1323C6.73496 15.7527 5.67717 15.3926 5.57116 14.5277L5.45962 13.6182C5.43487 13.4162 5.2665 13.2617 5.06333 13.2512C4.38796 13.2162 3.85426 13.1736 3.43672 13.1307C2.58646 13.0432 1.96693 12.4124 1.86906 11.5633C1.76694 10.6772 1.66675 9.33924 1.66675 7.50033C1.66675 5.66141 1.76694 4.32345 1.86906 3.43736C1.96693 2.58823 2.58581 1.95752 3.43607 1.87007ZM5.83342 5.00033C5.37316 5.00033 5.00008 5.37341 5.00008 5.83366C5.00008 6.29391 5.37316 6.66699 5.83342 6.66699H11.6667C12.127 6.66699 12.5001 6.29391 12.5001 5.83366C12.5001 5.37341 12.127 5.00033 11.6667 5.00033H5.83342ZM5.83342 8.75033C5.37316 8.75033 5.00008 9.12341 5.00008 9.58366C5.00008 10.0439 5.37316 10.417 5.83342 10.417H9.16675C9.627 10.417 10.0001 10.0439 10.0001 9.58366C10.0001 9.12341 9.627 8.75033 9.16675 8.75033H5.83342Z" fill="currentColor"/>
<path d="M4.99927 5.83333C4.99927 5.37308 5.37235 5 5.8326 5H11.666C12.1262 5 12.4993 5.37308 12.4993 5.83333C12.4993 6.29358 12.1262 6.66667 11.666 6.66667H5.8326C5.37235 6.66667 4.99927 6.29358 4.99927 5.83333Z" fill="currentColor"/>
<path d="M4.99927 9.58333C4.99927 9.12308 5.37235 8.75 5.8326 8.75H9.16598C9.62623 8.75 9.99931 9.12308 9.99931 9.58333C9.99931 10.0436 9.62623 10.4167 9.16598 10.4167H5.8326C5.37235 10.4167 4.99927 10.0436 4.99927 9.58333Z" fill="currentColor"/>
<path d="M8.35498 14.1094L8.75531 13.7035C8.98906 13.4664 9.30898 13.3328 9.64198 13.3297C11.7901 13.3101 13.1845 13.221 14.0636 13.1306C14.9139 13.0432 15.5326 12.4125 15.6305 11.5633C15.6971 10.9845 15.7631 10.2126 15.8007 9.23438C16.2231 9.25946 16.5556 9.28887 16.8146 9.31796C17.3359 9.37654 17.7181 9.75312 17.783 10.2736C17.8507 10.8177 17.9161 11.6666 17.9161 12.917C17.9161 14.1675 17.8507 15.0164 17.783 15.5605C17.7181 16.081 17.3354 16.4575 16.8141 16.5161C16.4657 16.5553 15.9843 16.595 15.3304 16.624C15.1371 16.6325 14.973 16.7714 14.9356 16.9613L14.7933 17.6829C14.7 18.156 14.1285 18.3497 13.7667 18.0307L12.5596 16.9661C12.336 16.769 12.0482 16.6588 11.7501 16.6517C10.6544 16.6257 9.91773 16.5704 9.43548 16.5162C8.91423 16.4577 8.53081 16.081 8.46598 15.5605C8.4224 15.211 8.3799 14.7359 8.35498 14.1094Z" fill="currentColor"/>
</svg>