<svg viewBox="0 0 20 20" fill="none" xmlns="http://www.w3.org/2000/svg">
<path opacity="0.32" d="M18.3334 8.75025C18.3334 11.0051 18.2724 12.7718 18.2164 13.9184C18.1783 14.699 17.4222 15.2594 16.6477 15.155C15.3777 14.9838 13.2327 14.7919 10.0001 14.7919C6.7675 14.7919 4.62254 14.9838 3.35246 15.155C2.57792 15.2594 1.82186 14.699 1.78374 13.9184C1.72776 12.7718 1.66675 11.0051 1.66675 8.75025C1.66675 6.49547 1.72776 4.72872 1.78374 3.58215C1.82186 2.80155 2.57792 2.24115 3.35246 2.34552C4.62254 2.51666 6.7675 2.7086 10.0001 2.7086C13.2327 2.7086 15.3777 2.51666 16.6477 2.34552C17.4222 2.24115 18.1783 2.80155 18.2164 3.58215C18.2724 4.72872 18.3334 6.49547 18.3334 8.75025Z" fill="currentColor"/>
<path d="M4.65905 15.0081C4.40313 15.6187 4.12141 16.3422 3.88049 17.0834C3.807 17.3095 3.94383 17.5481 4.18044 17.5711C4.56735 17.6087 4.98002 17.591 5.29627 17.5639C5.64052 17.5344 5.94302 17.3375 6.13039 17.0472C6.62244 16.2851 7.09893 15.4912 7.48215 14.834C6.35886 14.8737 5.42338 14.9372 4.65905 15.0081Z" fill="currentColor"/>
<path d="M12.5183 14.834C12.9015 15.4912 13.378 16.285 13.8701 17.0472C14.0574 17.3374 14.3599 17.5343 14.7041 17.5638C15.0204 17.5909 15.4331 17.6086 15.82 17.571C16.0566 17.548 16.1934 17.3094 16.12 17.0833C15.8791 16.3421 15.5973 15.6186 15.3414 15.008C14.5771 14.9372 13.6416 14.8736 12.5183 14.834Z" fill="currentColor"/>
</svg>
