<svg  viewBox="0 0 20 20" fill="none" xmlns="http://www.w3.org/2000/svg">
<path opacity="0.35" d="M17.9167 6.97533V13.1837C17.9167 13.3087 17.875 13.4337 17.7667 13.542C16.5584 14.7587 14.4084 16.9253 13.175 18.167C13.0667 18.2837 12.925 18.3337 12.7834 18.3337H6.14171C3.90004 18.3337 2.08337 16.517 2.08337 14.2753V6.97533C2.08337 4.73366 3.90004 2.91699 6.14171 2.91699H13.8584C16.1 2.91699 17.9167 4.73366 17.9167 6.97533Z" fill="currentColor"/>
<path d="M6.90833 5.24199C6.55833 5.24199 6.28333 4.95866 6.28333 4.61699V2.29199C6.28333 1.95033 6.55833 1.66699 6.90833 1.66699C7.25833 1.66699 7.53333 1.95033 7.53333 2.29199V4.60866C7.53333 4.95866 7.25833 5.24199 6.90833 5.24199Z" fill="currentColor"/>
<path d="M13.0917 5.24199C12.7417 5.24199 12.4667 4.95866 12.4667 4.61699V2.29199C12.4667 1.94199 12.75 1.66699 13.0917 1.66699C13.4417 1.66699 13.7167 1.95033 13.7167 2.29199V4.60866C13.7167 4.95866 13.4417 5.24199 13.0917 5.24199Z" fill="currentColor"/>
<path d="M12.3166 10.5918H6.1333C5.7833 10.5918 5.5083 10.3085 5.5083 9.9668C5.5083 9.62513 5.79163 9.3418 6.1333 9.3418H12.3166C12.6666 9.3418 12.9416 9.62513 12.9416 9.9668C12.9416 10.3085 12.6666 10.5918 12.3166 10.5918Z" fill="currentColor"/>
<path d="M9.99997 13.6836H6.1333C5.7833 13.6836 5.5083 13.4003 5.5083 13.0586C5.5083 12.7086 5.79163 12.4336 6.1333 12.4336H9.99997C10.35 12.4336 10.625 12.7169 10.625 13.0586C10.625 13.4003 10.35 13.6836 9.99997 13.6836Z" fill="currentColor"/>
<path d="M17.9166 13.1827C17.9166 13.3077 17.8749 13.4327 17.7666 13.5411C16.5582 14.7577 14.4082 16.9244 13.1749 18.1661C13.0666 18.2827 12.9249 18.3327 12.7832 18.3327C12.5082 18.3327 12.2416 18.1161 12.2416 17.7994V14.8827C12.2416 13.6661 13.2749 12.6577 14.5416 12.6577C15.3332 12.6494 16.4332 12.6494 17.3749 12.6494C17.6999 12.6494 17.9166 12.9077 17.9166 13.1827Z" fill="currentColor"/>
</svg>
