<svg  viewBox="0 0 20 20" fill="none" xmlns="http://www.w3.org/2000/svg">
<path opacity="0.35" d="M3.05835 2.08301V12.058C3.05835 12.8747 3.44168 13.6497 4.10002 14.1413L8.44168 17.3913C9.36668 18.083 10.6417 18.083 11.5667 17.3913L15.9083 14.1413C16.5667 13.6497 16.95 12.8747 16.95 12.058V2.08301H3.05835Z" fill="currentColor"/>
<path d="M18.3333 2.70801H1.66663C1.32496 2.70801 1.04163 2.42467 1.04163 2.08301C1.04163 1.74134 1.32496 1.45801 1.66663 1.45801H18.3333C18.675 1.45801 18.9583 1.74134 18.9583 2.08301C18.9583 2.42467 18.675 2.70801 18.3333 2.70801Z" fill="currentColor"/>
<path d="M13.3333 7.29199H6.66663C6.32496 7.29199 6.04163 7.00866 6.04163 6.66699C6.04163 6.32533 6.32496 6.04199 6.66663 6.04199H13.3333C13.675 6.04199 13.9583 6.32533 13.9583 6.66699C13.9583 7.00866 13.675 7.29199 13.3333 7.29199Z" fill="currentColor"/>
<path d="M13.3333 11.458H6.66663C6.32496 11.458 6.04163 11.1747 6.04163 10.833C6.04163 10.4913 6.32496 10.208 6.66663 10.208H13.3333C13.675 10.208 13.9583 10.4913 13.9583 10.833C13.9583 11.1747 13.675 11.458 13.3333 11.458Z" fill="currentColor"/>
</svg>
