<svg  viewBox="0 0 20 20" fill="none" xmlns="http://www.w3.org/2000/svg">
<path opacity="0.35" d="M13.5334 3.04199H6.4667C4.40837 3.04199 2.7417 4.71699 2.7417 6.76699V14.6087C2.7417 16.6587 4.4167 18.3337 6.4667 18.3337H13.525C15.5834 18.3337 17.25 16.6587 17.25 14.6087V6.76699C17.2584 4.70866 15.5834 3.04199 13.5334 3.04199Z" fill="currentColor"/>
<path d="M11.9583 1.66699H8.04167C7.17501 1.66699 6.46667 2.36699 6.46667 3.23366V4.01699C6.46667 4.88366 7.16667 5.58366 8.03334 5.58366H11.9583C12.825 5.58366 13.525 4.88366 13.525 4.01699V3.23366C13.5333 2.36699 12.825 1.66699 11.9583 1.66699Z" fill="currentColor"/>
<path d="M12.1084 13.0164L10.9 11.8081L12.0667 10.6414C12.3084 10.3997 12.3084 9.99974 12.0667 9.75807C11.825 9.51641 11.425 9.51641 11.1834 9.75807L10.0167 10.9247L8.80837 9.71641C8.5667 9.47474 8.1667 9.47474 7.92503 9.71641C7.68337 9.95807 7.68337 10.3581 7.92503 10.5997L9.13337 11.8081L7.8917 13.0497C7.65003 13.2914 7.65003 13.6914 7.8917 13.9331C8.0167 14.0581 8.17503 14.1164 8.33337 14.1164C8.4917 14.1164 8.65003 14.0581 8.77503 13.9331L10.0167 12.6914L11.225 13.8997C11.35 14.0247 11.5084 14.0831 11.6667 14.0831C11.825 14.0831 11.9834 14.0247 12.1084 13.8997C12.35 13.6581 12.35 13.2664 12.1084 13.0164Z" fill="currentColor"/>
</svg>
