<svg  viewBox="0 0 32 32" fill="none" xmlns="http://www.w3.org/2000/svg">
<path opacity="0.35" d="M28.241 22.6271C27.8628 23.5007 26.9633 24 26.0114 24H19.7538C19.7949 23.886 19.8313 23.7692 19.8628 23.6497C20.2278 22.2632 19.8433 20.852 18.9618 19.8617C19.2872 17.2121 19.4902 14.4977 19.6144 12.3535C19.6758 11.2897 18.3726 10.9344 17.9032 11.887C16.957 13.8071 15.799 16.2611 14.7789 18.7213C13.5289 19.1305 12.5024 20.1569 12.1372 21.5435C11.9152 22.3865 11.9704 23.2388 12.246 24H5.98851C5.03659 24 4.13713 23.5007 3.75887 22.6271C3.05612 21.0044 2.66663 19.2144 2.66663 17.3333C2.66663 9.96953 8.63616 4 16 4C23.3638 4 29.3333 9.96953 29.3333 17.3333C29.3333 19.2144 28.9438 21.0044 28.241 22.6271Z" fill="currentColor"/>
<path d="M19.6144 12.3532C19.6759 11.2894 18.3727 10.9341 17.9032 11.8867C16.9571 13.8067 15.7991 16.2607 14.7789 18.721C13.5289 19.1302 12.5024 20.1566 12.1373 21.5431C11.5656 23.7138 12.8317 25.945 14.9651 26.5267C17.0984 27.1083 19.2912 25.8202 19.8628 23.6494C20.2279 22.2629 19.8433 20.8517 18.9619 19.8614C19.2872 17.2118 19.4903 14.4974 19.6144 12.3532Z" fill="currentColor"/>
</svg>
