<svg  viewBox="0 0 20 20" fill="none" xmlns="http://www.w3.org/2000/svg">
<path opacity="0.35" d="M13.4917 1.66699H6.50835C3.47502 1.66699 1.66669 3.47533 1.66669 6.50866V13.4837C1.66669 16.5253 3.47502 18.3337 6.50835 18.3337H13.4834C16.5167 18.3337 18.325 16.5253 18.325 13.492V6.50866C18.3334 3.47533 16.525 1.66699 13.4917 1.66699Z" fill="#64748B"/>
<path d="M14.025 7.84173C13.9667 7.70007 13.85 7.5834 13.7083 7.52507C13.6417 7.50007 13.5667 7.4834 13.4917 7.4834H11.9417C11.6167 7.4834 11.3583 7.74173 11.3583 8.06673C11.3583 8.39173 11.6167 8.65007 11.9417 8.65007H12.0917L10.3333 10.4084L9.48333 9.14173C9.38332 9.00007 9.23333 8.90007 9.05833 8.8834C8.87499 8.86673 8.71666 8.92507 8.59166 9.05007L6.10833 11.5334C5.88333 11.7584 5.88333 12.1251 6.10833 12.3584C6.22499 12.4751 6.36666 12.5251 6.51666 12.5251C6.66666 12.5251 6.81666 12.4667 6.92499 12.3584L8.90832 10.3751L9.75832 11.6417C9.85832 11.7834 10.0083 11.8834 10.1833 11.9001C10.3667 11.9167 10.525 11.8584 10.65 11.7334L12.9167 9.46673V9.61673C12.9167 9.94173 13.175 10.2001 13.5 10.2001C13.825 10.2001 14.0833 9.94173 14.0833 9.61673V8.0584C14.0667 7.9834 14.0583 7.9084 14.025 7.84173Z" fill="#64748B"/>
</svg>
