<svg  viewBox="0 0 32 32" fill="none" xmlns="http://www.w3.org/2000/svg">
<path opacity="0.35" fill-rule="evenodd" clip-rule="evenodd" d="M19.0386 2.86966C18.5453 2.66699 17.9186 2.66699 16.6666 2.66699C15.4146 2.66699 14.7893 2.66699 14.2946 2.86966C13.6379 3.13927 13.1151 3.65868 12.8413 4.31366C12.7159 4.61099 12.6679 4.95899 12.6479 5.46433C12.639 5.83046 12.5369 6.18828 12.3512 6.50395C12.1655 6.81962 11.9023 7.0827 11.5866 7.26833C11.2649 7.44713 10.9033 7.54185 10.5353 7.54372C10.1673 7.54558 9.80474 7.45453 9.48127 7.27899C9.0306 7.04166 8.70393 6.91099 8.38127 6.86833C7.67534 6.77564 6.96136 6.96539 6.3946 7.39633C5.9706 7.71899 5.65727 8.25766 5.03193 9.33366C4.40527 10.4097 4.09327 10.947 4.0226 11.4737C3.92927 12.175 4.12127 12.8843 4.55593 13.4457C4.75327 13.7017 5.03193 13.9163 5.4626 14.1857C6.0986 14.5817 6.5066 15.2563 6.5066 16.0003C6.5066 16.7443 6.0986 17.419 5.46393 17.8137C5.03193 18.0843 4.75327 18.299 4.5546 18.555C4.34004 18.8322 4.18256 19.1493 4.09124 19.4877C3.99993 19.8262 3.9766 20.1794 4.0226 20.527C4.09327 21.0523 4.40527 21.591 5.03193 22.667C5.6586 23.743 5.9706 24.2803 6.3946 24.6043C6.95993 25.035 7.6746 25.2243 8.38127 25.1323C8.70393 25.0897 9.0306 24.959 9.48127 24.7217C9.8049 24.5459 10.1677 24.4547 10.536 24.4566C10.9043 24.4584 11.2661 24.5533 11.5879 24.7323C12.2359 25.1057 12.6199 25.7923 12.6479 26.5363C12.6679 27.043 12.7159 27.3897 12.8413 27.687C13.1133 28.3403 13.6359 28.8603 14.2946 29.131C14.7879 29.3337 15.4146 29.3337 16.6666 29.3337C17.9186 29.3337 18.5453 29.3337 19.0386 29.131C19.6953 28.8614 20.2181 28.342 20.4919 27.687C20.6173 27.3897 20.6653 27.043 20.6853 26.5363C20.7119 25.7923 21.0973 25.1043 21.7466 24.7323C22.0683 24.5535 22.4299 24.4588 22.7979 24.4569C23.1659 24.4551 23.5285 24.5461 23.8519 24.7217C24.3026 24.959 24.6293 25.0897 24.9519 25.1323C25.6586 25.2257 26.3733 25.035 26.9386 24.6043C27.3626 24.2817 27.6759 23.743 28.3013 22.667C28.9279 21.591 29.2399 21.0537 29.3106 20.527C29.3564 20.1794 29.3329 19.8261 29.2413 19.4876C29.1498 19.1491 28.9921 18.8321 28.7773 18.555C28.5799 18.299 28.3013 18.0843 27.8706 17.815C27.2346 17.419 26.8266 16.7443 26.8266 16.0003C26.8266 15.2563 27.2346 14.5817 27.8693 14.187C28.3013 13.9163 28.5799 13.7017 28.7786 13.4457C28.9932 13.1684 29.1506 12.8514 29.242 12.5129C29.3333 12.1744 29.3566 11.8212 29.3106 11.4737C29.2399 10.9483 28.9279 10.4097 28.3013 9.33366C27.6746 8.25766 27.3626 7.72032 26.9386 7.39633C26.3718 6.96539 25.6579 6.77564 24.9519 6.86833C24.6293 6.91099 24.3026 7.04166 23.8519 7.27899C23.5283 7.45476 23.1655 7.54595 22.7972 7.54408C22.4289 7.54222 22.0671 7.44737 21.7453 7.26833C21.4298 7.08254 21.1669 6.81938 20.9814 6.50373C20.7959 6.18807 20.694 5.83034 20.6853 5.46433C20.6653 4.95766 20.6173 4.61099 20.4919 4.31366C20.3564 3.98931 20.1583 3.69484 19.9089 3.44707C19.6596 3.1993 19.3638 3.0031 19.0386 2.86966Z" fill="currentColor"/>
<path d="M20.6973 16C20.6973 18.2093 18.892 20 16.6667 20C14.44 20 12.636 18.2093 12.636 16C12.636 13.7907 14.44 12 16.6667 12C18.8933 12 20.6973 13.7907 20.6973 16Z" fill="currentColor"/>
</svg>
