<svg viewBox="0 0 20 20" fill="none" xmlns="http://www.w3.org/2000/svg">
<path opacity="0.35" d="M2.27245 3.90548C2.35207 3.21907 2.7685 2.65239 3.44322 2.50317C4.49567 2.27043 6.53562 2 10.3333 2C14.1311 2 16.171 2.27043 17.2235 2.50317C17.8982 2.65239 18.3146 3.21907 18.3942 3.90548C18.5146 4.9435 18.6667 6.65304 18.6667 8.66667C18.6667 12.4285 16.6812 15.9485 13.3364 17.6699C12.2191 18.245 11.1286 18.6667 10.3333 18.6667C9.53808 18.6667 8.44758 18.245 7.33025 17.6699C3.98539 15.9485 2 12.4285 2 8.66667C2 6.65304 2.15206 4.9435 2.27245 3.90548Z" fill="currentColor"/>
<path fill-rule="evenodd" clip-rule="evenodd" d="M7.60087 6.46183C7.65792 5.17828 8.71517 4.16699 10 4.16699C11.2848 4.16699 12.3421 5.17828 12.3992 6.46183L12.4488 7.58099L12.5063 7.58587C13.1752 7.64366 13.6473 8.10874 13.6981 8.77816C13.7279 9.17174 13.75 9.70399 13.75 10.417C13.75 11.13 13.7279 11.6622 13.6981 12.0558C13.6473 12.7252 13.1752 13.1903 12.5063 13.2482C11.9663 13.2948 11.1664 13.3337 10 13.3337C8.83358 13.3337 8.03367 13.2948 7.49367 13.2482C6.82479 13.1903 6.35271 12.7252 6.30196 12.0558C6.27212 11.6622 6.25 11.13 6.25 10.417C6.25 9.76574 6.26583 9.26524 6.28804 8.88349C6.33025 8.15887 6.83063 7.64441 7.55117 7.58024L7.60087 6.46183ZM10.7341 6.53583L10.7772 7.50662C10.5382 7.50258 10.2797 7.50033 10 7.50033C9.72067 7.50033 9.462 7.50258 9.22275 7.50658L9.26592 6.53587C9.28333 6.14308 9.60692 5.83366 10 5.83366C10.3931 5.83366 10.7167 6.14308 10.7341 6.53583ZM10.8333 10.0003C10.8333 10.3411 10.6287 10.6341 10.3358 10.7632L10.3945 11.2849C10.409 11.4138 10.3879 11.5547 10.2715 11.6118C10.2084 11.6427 10.1205 11.667 10 11.667C9.8795 11.667 9.79158 11.6427 9.7285 11.6118C9.61208 11.5547 9.591 11.4138 9.6055 11.2849L9.66417 10.7632C9.37125 10.6341 9.16667 10.3411 9.16667 10.0003C9.16667 9.54008 9.53975 9.16699 10 9.16699C10.4602 9.16699 10.8333 9.54008 10.8333 10.0003Z" fill="currentColor"/>
</svg>
