<svg viewBox="0 0 32 32" fill="none" xmlns="http://www.w3.org/2000/svg">
<path opacity="0.35" d="M29.3333 22.0003V26.0003C29.3333 28.0003 28 29.3337 26 29.3337H8C8.54667 29.3337 9.10667 29.2537 9.62667 29.0803C9.77333 29.027 9.91998 28.9737 10.0667 28.907C10.5333 28.7203 10.9867 28.4537 11.3867 28.107C11.5067 28.0137 11.64 27.8937 11.76 27.7737L11.8133 27.7203L20.88 18.667H26C28 18.667 29.3333 20.0003 29.3333 22.0003Z" fill="currentColor"/>
<path opacity="0.5" d="M24.4933 15.053L20.88 18.6663L11.8133 27.7196C12.7466 26.7596 13.3333 25.4396 13.3333 23.9996V11.1196L16.9466 7.50629C18.36 6.09296 20.2533 6.09296 21.6666 7.50629L24.4933 10.333C25.9066 11.7463 25.9066 13.6396 24.4933 15.053Z" fill="currentColor"/>
<path d="M10 2.66699H6.00002C4.00002 2.66699 2.66669 4.00033 2.66669 6.00033V24.0003C2.66669 24.3603 2.70667 24.7203 2.77334 25.067C2.81334 25.2403 2.85334 25.4137 2.90668 25.587C2.97334 25.787 3.04002 25.987 3.12002 26.1737C3.13335 26.187 3.13336 26.2003 3.13336 26.2003C3.1467 26.2003 3.1467 26.2003 3.13336 26.2137C3.32003 26.587 3.53335 26.947 3.78668 27.2803C3.93335 27.4537 4.08004 27.6137 4.2267 27.7737C4.37337 27.9337 4.53335 28.067 4.70669 28.2003L4.72003 28.2137C5.05337 28.467 5.41335 28.6803 5.78668 28.867C5.80002 28.8537 5.80003 28.8537 5.80003 28.867C6.00003 28.9603 6.20002 29.027 6.41335 29.0937C6.58668 29.147 6.76004 29.187 6.93337 29.227C7.28004 29.2937 7.64002 29.3337 8.00002 29.3337C8.54669 29.3337 9.10669 29.2537 9.62669 29.0803C9.77336 29.027 9.92 28.9737 10.0667 28.907C10.5333 28.7203 10.9867 28.4537 11.3867 28.107C11.5067 28.0137 11.64 27.8937 11.76 27.7737L11.8133 27.7203C12.7467 26.7603 13.3334 25.4403 13.3334 24.0003V6.00033C13.3334 4.00033 12 2.66699 10 2.66699ZM8.00002 26.0003C6.89335 26.0003 6.00002 25.107 6.00002 24.0003C6.00002 22.8937 6.89335 22.0003 8.00002 22.0003C9.10669 22.0003 10 22.8937 10 24.0003C10 25.107 9.10669 26.0003 8.00002 26.0003Z" fill="currentColor"/>
</svg>
