<svg viewBox="0 0 112 72" fill="none" xmlns="http://www.w3.org/2000/svg">
  <path
    d="M4 8C4 5.79086 5.79086 4 8 4H26V68H8C5.79086 68 4 66.2091 4 64V8Z"
    class="svg-slate-200"
  />
  <rect x="30" y="4" width="77" height="8" rx="1" class="svg-slate-200" />
  <rect x="30" y="16" width="25" height="17" rx="1" class="svg-slate-200" />
  <rect x="59" y="16" width="48" height="17" rx="1" class="svg-slate-200" />
  <rect x="30" y="37" width="77" height="23" rx="1" class="svg-slate-200" />
  <rect x="30" y="64" width="77" height="4" rx="1" class="svg-slate-200" />
  <rect x="10" y="10" width="10" height="9" rx="2" class="svg-slate-300" />
  <rect x="6" y="28" width="18" height="4" rx="1" class="svg-slate-300" />
  <rect x="6" y="36" width="18" height="4" rx="1" class="svg-slate-300" />
  <rect x="6" y="44" width="18" height="4" rx="1" class="svg-slate-300" />
  <rect x="6" y="52" width="18" height="4" rx="1" class="svg-slate-300" />
  <circle cx="36" cy="8" r="2" class="svg-slate-300" />
  <circle cx="89" cy="8" r="2" class="svg-slate-300" />
  <circle cx="95" cy="8" r="2" class="svg-slate-300" />
  <circle cx="101" cy="8" r="2" class="svg-slate-300" />
</svg>
