<svg width="32" height="32" viewBox="0 0 32 32" fill="none" xmlns="http://www.w3.org/2000/svg">
<path fill-rule="evenodd" clip-rule="evenodd" d="M6.63149 9.38947C7.22657 8.84103 8.1914 8.84103 8.78648 9.38947L14.8817 15.007C15.4768 15.5554 15.4768 16.4446 14.8817 16.993L8.78648 22.6105C8.1914 23.159 7.22657 23.159 6.63149 22.6105C6.0364 22.0621 6.0364 21.1729 6.63149 20.6244L11.6492 16L6.63149 11.3756C6.0364 10.8271 6.0364 9.93791 6.63149 9.38947Z" fill="#155AEF"/>
<path fill-rule="evenodd" clip-rule="evenodd" d="M16.3438 21.6175C16.3438 20.8419 17.0261 20.2131 17.8677 20.2131H23.9629C24.8045 20.2131 25.4867 20.8419 25.4867 21.6175C25.4867 22.3931 24.8045 23.0219 23.9629 23.0219H17.8677C17.0261 23.0219 16.3438 22.3931 16.3438 21.6175Z" fill="#155AEF"/>
<path fill-rule="evenodd" clip-rule="evenodd" d="M27.4168 8.39505L17.512 3.17881C16.5751 2.68539 15.4249 2.68539 14.488 3.17881L4.5832 8.39505C3.63363 8.89513 3.04762 9.82579 3.04762 10.8337V21.1663C3.04762 22.1742 3.63363 23.1049 4.5832 23.6049L14.488 28.8212C15.4249 29.3146 16.5751 29.3146 17.512 28.8212L27.4168 23.6049C28.3664 23.1049 28.9524 22.1742 28.9524 21.1663V10.8337C28.9524 9.82579 28.3664 8.89513 27.4168 8.39505ZM19.0241 0.740143C17.1502 -0.246714 14.8498 -0.246714 12.9759 0.740142L3.07115 5.95638C1.17203 6.95653 0 8.81785 0 10.8337V21.1663C0 23.1821 1.17203 25.0435 3.07115 26.0436L12.9759 31.2599C14.8498 32.2467 17.1502 32.2467 19.0241 31.2599L28.9288 26.0436C30.828 25.0435 32 23.1821 32 21.1663V10.8337C32 8.81785 30.828 6.95653 28.9288 5.95638L19.0241 0.740143Z" fill="#155AEF"/>
<path d="M21.4463 18.9883C20.4247 18.9883 19.5459 18.7888 18.81 18.3898C18.0784 17.9869 17.5156 17.4283 17.1217 16.7142C16.732 16 16.5372 15.1781 16.5372 14.2485C16.5372 13.307 16.7342 12.4811 17.1281 11.7709C17.5264 11.0568 18.0913 10.5002 18.823 10.1012C19.5546 9.69828 20.4247 9.4968 21.4333 9.4968C22.3035 9.4968 23.0654 9.64243 23.7191 9.93367C24.3727 10.2249 24.8901 10.6339 25.271 11.1605C25.652 11.6871 25.8619 12.3055 25.9009 13.0157H23.2905C23.2169 12.5569 23.0221 12.1878 22.7061 11.9086C22.3944 11.6253 21.9853 11.4837 21.4788 11.4837C21.0502 11.4837 20.6758 11.5914 20.3554 11.8068C20.0394 12.0183 19.7926 12.3275 19.6152 12.7344C19.4377 13.1414 19.3489 13.6341 19.3489 14.2126C19.3489 14.7991 19.4355 15.2978 19.6087 15.7088C19.7862 16.1197 20.0351 16.4329 20.3554 16.6483C20.6758 16.8638 21.0502 16.9715 21.4788 16.9715C21.7948 16.9715 22.0784 16.9116 22.3294 16.792C22.5849 16.6723 22.7948 16.4987 22.9593 16.2713C23.1281 16.0399 23.2385 15.7626 23.2905 15.4394H25.9009C25.8576 16.1416 25.6498 16.76 25.2775 17.2947C24.9095 17.8253 24.4009 18.2402 23.7515 18.5394C23.1022 18.8387 22.3338 18.9883 21.4463 18.9883Z" fill="#0F1624"/>
</svg>
