<svg viewBox="0 0 12 12" fill="none" xmlns="http://www.w3.org/2000/svg">
<path fill-rule="evenodd" clip-rule="evenodd" d="M4.01842 1.21608C4.26456 0.932134 4.56892 0.704475 4.91084 0.548564C5.25276 0.392654 5.62422 0.312144 6 0.312501C6.79159 0.312501 7.50092 0.662501 7.98159 1.21608C8.35649 1.18932 8.73277 1.24355 9.08486 1.3751C9.43694 1.50666 9.75659 1.71245 10.0221 1.9785C10.288 2.24395 10.4938 2.56351 10.6253 2.91548C10.7569 3.26746 10.8111 3.64361 10.7845 4.01842C11.0683 4.26461 11.2959 4.569 11.4517 4.91091C11.6075 5.25283 11.6879 5.62426 11.6875 6C11.6879 6.37579 11.6073 6.74725 11.4514 7.08916C11.2955 7.43108 11.0679 7.73544 10.7839 7.98158C10.8106 8.35639 10.7563 8.73254 10.6247 9.08452C10.4932 9.43649 10.2874 9.75605 10.0215 10.0215C9.75605 10.2874 9.43649 10.4932 9.08452 10.6247C8.73255 10.7563 8.35639 10.8106 7.98159 10.7839C7.73544 11.0679 7.43108 11.2955 7.08916 11.4514C6.74725 11.6073 6.37579 11.6879 6 11.6875C5.62422 11.6879 5.25276 11.6073 4.91084 11.4514C4.56892 11.2955 4.26456 11.0679 4.01842 10.7839C3.64356 10.8108 3.26731 10.7566 2.91522 10.6252C2.56314 10.4937 2.24347 10.288 1.97792 10.0221C1.7119 9.75657 1.50613 9.43691 1.37458 9.08483C1.24302 8.73275 1.18877 8.35649 1.2155 7.98158C0.931658 7.73539 0.704108 7.431 0.548299 7.08909C0.392491 6.74717 0.312072 6.37574 0.312502 6C0.312502 5.20842 0.662502 4.49908 1.21609 4.01842C1.1894 3.64361 1.24368 3.26744 1.37523 2.91546C1.50678 2.56348 1.71253 2.24393 1.9785 1.9785C2.24393 1.71253 2.56349 1.50678 2.91546 1.37523C3.26744 1.24368 3.64361 1.1894 4.01842 1.21608ZM8.10584 4.94183C8.14084 4.8952 8.16616 4.84203 8.18032 4.78547C8.19448 4.72891 8.19719 4.67008 8.18829 4.61246C8.17939 4.55483 8.15906 4.49957 8.1285 4.44991C8.09794 4.40025 8.05776 4.3572 8.01032 4.3233C7.96288 4.28939 7.90914 4.26531 7.85227 4.25247C7.79539 4.23963 7.73652 4.23828 7.67911 4.24852C7.62171 4.25876 7.56693 4.28036 7.518 4.31207C7.46906 4.34378 7.42696 4.38495 7.39417 4.43317L5.5065 7.07567L4.55917 6.12833C4.47623 6.05105 4.36654 6.00898 4.2532 6.01098C4.13986 6.01298 4.03171 6.0589 3.95156 6.13906C3.8714 6.21921 3.82548 6.32735 3.82348 6.4407C3.82148 6.55404 3.86356 6.66373 3.94084 6.74667L5.25334 8.05917C5.29825 8.10404 5.35239 8.13861 5.41199 8.16046C5.4716 8.18231 5.53526 8.19093 5.59853 8.18571C5.6618 8.18049 5.72319 8.16157 5.77841 8.13025C5.83364 8.09893 5.88138 8.05596 5.91833 8.00433L8.10584 4.94183Z" fill="white"/>
</svg>
