<svg  viewBox="0 0 14 14" fill="none" xmlns="http://www.w3.org/2000/svg">
<path fill-rule="evenodd" clip-rule="evenodd" d="M1.3125 1.3125C1.19647 1.3125 1.08519 1.35859 1.00314 1.44064C0.921094 1.52269 0.875 1.63397 0.875 1.75C0.875 1.86603 0.921094 1.97731 1.00314 2.05936C1.08519 2.14141 1.19647 2.1875 1.3125 2.1875H1.75V8.3125C1.75 8.77663 1.93437 9.22175 2.26256 9.54994C2.59075 9.87813 3.03587 10.0625 3.5 10.0625H4.20583L3.52217 12.1118C3.4855 12.2219 3.49409 12.3421 3.54606 12.4459C3.59802 12.5497 3.6891 12.6287 3.79925 12.6653C3.9094 12.702 4.02961 12.6934 4.13343 12.6414C4.23724 12.5895 4.31617 12.4984 4.35283 12.3883L4.54475 11.8125H9.45525L9.64775 12.3883C9.68758 12.4942 9.7669 12.5805 9.86905 12.6292C9.97121 12.6779 10.0882 12.6851 10.1956 12.6493C10.3029 12.6135 10.3923 12.5375 10.4448 12.4373C10.4973 12.3371 10.5089 12.2204 10.4773 12.1118L9.79475 10.0625H10.5C10.9641 10.0625 11.4092 9.87813 11.7374 9.54994C12.0656 9.22175 12.25 8.77663 12.25 8.3125V2.1875H12.6875C12.8035 2.1875 12.9148 2.14141 12.9969 2.05936C13.0789 1.97731 13.125 1.86603 13.125 1.75C13.125 1.63397 13.0789 1.52269 12.9969 1.44064C12.9148 1.35859 12.8035 1.3125 12.6875 1.3125H1.3125ZM4.83583 10.9375L5.1275 10.0625H8.8725L9.16417 10.9375H4.83583ZM9.1875 3.9375C9.1875 3.82147 9.14141 3.71019 9.05936 3.62814C8.97731 3.54609 8.86603 3.5 8.75 3.5C8.63397 3.5 8.52269 3.54609 8.44064 3.62814C8.35859 3.71019 8.3125 3.82147 8.3125 3.9375V7.4375C8.3125 7.55353 8.35859 7.66481 8.44064 7.74686C8.52269 7.82891 8.63397 7.875 8.75 7.875C8.86603 7.875 8.97731 7.82891 9.05936 7.74686C9.14141 7.66481 9.1875 7.55353 9.1875 7.4375V3.9375ZM7.4375 5.25C7.4375 5.13397 7.39141 5.02269 7.30936 4.94064C7.22731 4.85859 7.11603 4.8125 7 4.8125C6.88397 4.8125 6.77269 4.85859 6.69064 4.94064C6.60859 5.02269 6.5625 5.13397 6.5625 5.25V7.4375C6.5625 7.55353 6.60859 7.66481 6.69064 7.74686C6.77269 7.82891 6.88397 7.875 7 7.875C7.11603 7.875 7.22731 7.82891 7.30936 7.74686C7.39141 7.66481 7.4375 7.55353 7.4375 7.4375V5.25ZM5.6875 6.5625C5.6875 6.44647 5.64141 6.33519 5.55936 6.25314C5.47731 6.17109 5.36603 6.125 5.25 6.125C5.13397 6.125 5.02269 6.17109 4.94064 6.25314C4.85859 6.33519 4.8125 6.44647 4.8125 6.5625V7.4375C4.8125 7.55353 4.85859 7.66481 4.94064 7.74686C5.02269 7.82891 5.13397 7.875 5.25 7.875C5.36603 7.875 5.47731 7.82891 5.55936 7.74686C5.64141 7.66481 5.6875 7.55353 5.6875 7.4375V6.5625Z" fill="white"/>
</svg>
