<svg viewBox="0 0 16 16" fill="none" xmlns="http://www.w3.org/2000/svg">
<path fill-rule="evenodd" clip-rule="evenodd" d="M1.5 1.5C1.36739 1.5 1.24021 1.55268 1.14645 1.64645C1.05268 1.74021 1 1.86739 1 2C1 2.13261 1.05268 2.25979 1.14645 2.35355C1.24021 2.44732 1.36739 2.5 1.5 2.5H2V9.5C2 10.0304 2.21071 10.5391 2.58579 10.9142C2.96086 11.2893 3.46957 11.5 4 11.5H4.80667L4.02533 13.842C3.98343 13.9679 3.99325 14.1053 4.05264 14.2239C4.11202 14.3426 4.21611 14.4328 4.342 14.4747C4.46789 14.5166 4.60527 14.5067 4.72392 14.4474C4.84257 14.388 4.93276 14.2839 4.97467 14.158L5.194 13.5H10.806L11.026 14.158C11.0715 14.279 11.1622 14.3777 11.2789 14.4334C11.3957 14.489 11.5294 14.4972 11.6521 14.4563C11.7748 14.4154 11.8769 14.3286 11.9369 14.2141C11.9969 14.0995 12.0102 13.9661 11.974 13.842L11.194 11.5H12C12.5304 11.5 13.0391 11.2893 13.4142 10.9142C13.7893 10.5391 14 10.0304 14 9.5V2.5H14.5C14.6326 2.5 14.7598 2.44732 14.8536 2.35355C14.9473 2.25979 15 2.13261 15 2C15 1.86739 14.9473 1.74021 14.8536 1.64645C14.7598 1.55268 14.6326 1.5 14.5 1.5H1.5ZM5.86 11.5H10.14L10.4733 12.5H5.52667L5.86 11.5ZM11.25 5.50333C11.3073 5.47074 11.3576 5.42713 11.398 5.37502C11.4384 5.32291 11.4681 5.26332 11.4854 5.19968C11.5027 5.13604 11.5072 5.06962 11.4987 5.00423C11.4902 4.93884 11.4689 4.87577 11.4359 4.81867C11.4029 4.76156 11.359 4.71154 11.3066 4.67149C11.2542 4.63144 11.1944 4.60214 11.1307 4.58528C11.0669 4.56843 11.0005 4.56435 10.9351 4.57328C10.8698 4.58222 10.8069 4.60398 10.75 4.63733C9.84103 5.16349 9.03691 5.8528 8.378 6.67067L7.35333 5.64667C7.25958 5.55303 7.1325 5.50044 7 5.50044C6.8675 5.50044 6.74042 5.55303 6.64667 5.64667L4.64667 7.64667C4.59754 7.69244 4.55814 7.74764 4.53081 7.80897C4.50348 7.87031 4.48879 7.93652 4.48761 8.00365C4.48642 8.07079 4.49877 8.13747 4.52392 8.19973C4.54907 8.26199 4.5865 8.31855 4.63397 8.36602C4.68145 8.4135 4.73801 8.45093 4.80027 8.47608C4.86253 8.50123 4.92921 8.51358 4.99635 8.51239C5.06348 8.51121 5.12969 8.49651 5.19103 8.46919C5.25236 8.44186 5.30756 8.40246 5.35333 8.35333L7 6.70667L8.078 7.78533C8.12972 7.83705 8.19215 7.87679 8.2609 7.90176C8.32965 7.92672 8.40303 7.9363 8.47589 7.92982C8.54874 7.92333 8.61928 7.90094 8.68254 7.86423C8.7458 7.82752 8.80023 7.77737 8.842 7.71733C9.47301 6.81204 10.295 6.05627 11.25 5.50333Z" fill="#EF4444"/>
</svg>
