<svg viewBox="0 0 14 12" fill="none" xmlns="http://www.w3.org/2000/svg">
<path d="M12 12C13.1046 12 14 11.1046 14 10V7C14 5.89543 13.1046 5 12 5H2C0.895431 5 0 5.89543 0 7L0 10C0 11.1046 0.895431 12 2 12H12Z" fill="#FACC15"/>
<path d="M0 4.76389L0 2C0 0.895431 0.895431 0 2 0L5.58579 0C5.98361 0 6.36514 0.158035 6.64645 0.43934L8.06066 1.85355C8.15443 1.94732 8.2816 2 8.41421 2H12C13.1046 2 14 2.89543 14 4V4.76389C13.4692 4.28885 12.7684 4 12 4H2C1.23165 4 0.530757 4.28885 0 4.76389Z" fill="#FACC15"/>
</svg>
