<svg  viewBox="0 0 10 14" fill="none" xmlns="http://www.w3.org/2000/svg">
<path fill-rule="evenodd" clip-rule="evenodd" d="M1.28125 0.875C0.676917 0.875 0.1875 1.365 0.1875 1.96875V12.0312C0.1875 12.635 0.6775 13.125 1.28125 13.125H8.71875C9.3225 13.125 9.8125 12.635 9.8125 12.0312V7.4375C9.8125 6.85734 9.58203 6.30094 9.1718 5.8907C8.76156 5.48047 8.20516 5.25 7.625 5.25H6.53125C6.24117 5.25 5.96297 5.13477 5.75785 4.92965C5.55273 4.72453 5.4375 4.44633 5.4375 4.15625V3.0625C5.4375 2.48234 5.20703 1.92594 4.7968 1.5157C4.38656 1.10547 3.83016 0.875 3.25 0.875H1.28125ZM2.375 8.75C2.375 8.63397 2.42109 8.52269 2.50314 8.44064C2.58519 8.35859 2.69647 8.3125 2.8125 8.3125H7.1875C7.30353 8.3125 7.41481 8.35859 7.49686 8.44064C7.57891 8.52269 7.625 8.63397 7.625 8.75C7.625 8.86603 7.57891 8.97731 7.49686 9.05936C7.41481 9.14141 7.30353 9.1875 7.1875 9.1875H2.8125C2.69647 9.1875 2.58519 9.14141 2.50314 9.05936C2.42109 8.97731 2.375 8.86603 2.375 8.75ZM2.8125 10.0625C2.69647 10.0625 2.58519 10.1086 2.50314 10.1906C2.42109 10.2727 2.375 10.384 2.375 10.5C2.375 10.616 2.42109 10.7273 2.50314 10.8094C2.58519 10.8914 2.69647 10.9375 2.8125 10.9375H5C5.11603 10.9375 5.22731 10.8914 5.30936 10.8094C5.39141 10.7273 5.4375 10.616 5.4375 10.5C5.4375 10.384 5.39141 10.2727 5.30936 10.1906C5.22731 10.1086 5.11603 10.0625 5 10.0625H2.8125Z" fill="white"/>
</svg>
