<svg viewBox="0 0 16 16" fill="none" xmlns="http://www.w3.org/2000/svg">
<path fill-rule="evenodd" clip-rule="evenodd" d="M1.5 9C1.5 7.54131 2.07946 6.14236 3.11091 5.11091C4.14236 4.07946 5.54131 3.5 7 3.5C7.13261 3.5 7.25979 3.55268 7.35355 3.64645C7.44732 3.74021 7.5 3.86739 7.5 4V8.5H12C12.1326 8.5 12.2598 8.55268 12.3536 8.64645C12.4473 8.74022 12.5 8.86739 12.5 9C12.5 10.4587 11.9205 11.8576 10.8891 12.8891C9.85764 13.9205 8.45869 14.5 7 14.5C5.54131 14.5 4.14236 13.9205 3.11091 12.8891C2.07946 11.8576 1.5 10.4587 1.5 9Z" fill="#3B82F6"/>
<path fill-rule="evenodd" clip-rule="evenodd" d="M8.5 2C8.5 1.86739 8.55268 1.74021 8.64645 1.64645C8.74022 1.55268 8.86739 1.5 9 1.5C10.4587 1.5 11.8576 2.07946 12.8891 3.11091C13.9205 4.14236 14.5 5.54131 14.5 7C14.5 7.13261 14.4473 7.25979 14.3536 7.35355C14.2598 7.44732 14.1326 7.5 14 7.5H9C8.86739 7.5 8.74022 7.44732 8.64645 7.35355C8.55268 7.25979 8.5 7.13261 8.5 7V2Z" fill="#3B82F6"/>
</svg>
