<svg  viewBox="0 0 12 12" fill="currentColor" xmlns="http://www.w3.org/2000/svg">
<path fill-rule="evenodd" clip-rule="evenodd" d="M0.3125 6C0.3125 2.85875 2.85875 0.3125 6 0.3125C9.14125 0.3125 11.6875 2.85875 11.6875 6C11.6875 9.14125 9.14125 11.6875 6 11.6875C2.85875 11.6875 0.3125 9.14125 0.3125 6ZM6 3.8125C6.11603 3.8125 6.22731 3.85859 6.30936 3.94064C6.39141 4.02269 6.4375 4.13397 6.4375 4.25V6.4375C6.4375 6.55353 6.39141 6.66481 6.30936 6.74686C6.22731 6.82891 6.11603 6.875 6 6.875C5.88397 6.875 5.77269 6.82891 5.69064 6.74686C5.60859 6.66481 5.5625 6.55353 5.5625 6.4375V4.25C5.5625 4.13397 5.60859 4.02269 5.69064 3.94064C5.77269 3.85859 5.88397 3.8125 6 3.8125ZM6 8.625C6.11603 8.625 6.22731 8.57891 6.30936 8.49686C6.39141 8.41481 6.4375 8.30353 6.4375 8.1875C6.4375 8.07147 6.39141 7.96019 6.30936 7.87814C6.22731 7.79609 6.11603 7.75 6 7.75C5.88397 7.75 5.77269 7.79609 5.69064 7.87814C5.60859 7.96019 5.5625 8.07147 5.5625 8.1875C5.5625 8.30353 5.60859 8.41481 5.69064 8.49686C5.77269 8.57891 5.88397 8.625 6 8.625Z" fill="white"/>
</svg>
